<svg width="22" height="28" viewBox="0 0 22 28" fill="none" xmlns="http://www.w3.org/2000/svg">
<path fill-rule="evenodd" clip-rule="evenodd" d="M18.3595 14.8756C18.3252 11.4605 21.1442 9.82244 21.27 9.74006C19.6861 7.4235 17.2181 7.10563 16.3394 7.06982C14.2411 6.85625 12.2425 8.30592 11.1775 8.30592C10.1153 8.30592 8.47034 7.10088 6.73016 7.13135C4.44032 7.16563 2.33036 8.46324 1.15198 10.5129C-1.22558 14.6371 0.544067 20.7498 2.86069 24.0975C3.99354 25.7335 5.34418 27.5748 7.116 27.5074C8.82412 27.4399 9.46901 26.4024 11.5334 26.4024C13.5979 26.4024 14.1781 27.5074 15.9847 27.4726C17.8212 27.4394 18.9856 25.8051 20.1094 24.1623C21.4093 22.2615 21.9449 20.4212 21.9765 20.3276C21.9368 20.3093 18.3963 18.9528 18.3595 14.8756ZM14.9646 4.85434C15.9043 3.71346 16.541 2.12791 16.3682 0.549805C15.0117 0.604883 13.3699 1.4515 12.3965 2.59133C11.5242 3.60272 10.7612 5.21287 10.9656 6.76256C12.4783 6.87981 14.0217 5.99311 14.9646 4.85434Z" fill="#3836D6"/>
</svg>
