<svg width="25" height="25" viewBox="0 0 25 25" fill="none" xmlns="http://www.w3.org/2000/svg">
<path d="M12.5 25C19.4036 25 25 19.4036 25 12.5C25 5.59644 19.4036 0 12.5 0C5.59644 0 0 5.59644 0 12.5C0 19.4036 5.59644 25 12.5 25Z" fill="#F0F0F0"/>
<path d="M12.4999 0C7.54414 0 3.26211 2.88403 1.24023 7.06523H23.7595C21.7377 2.88403 17.4556 0 12.4999 0Z" fill="#338AF3"/>
<path d="M12.4999 25C17.4556 25 21.7377 22.116 23.7596 17.9348H1.24023C3.26211 22.116 7.54414 25 12.4999 25Z" fill="#338AF3"/>
<path d="M16.2361 12.5001L14.7095 13.2182L15.5224 14.6967L13.8647 14.3795L13.6546 16.0542L12.5 14.8225L11.3453 16.0542L11.1353 14.3795L9.47759 14.6966L10.2905 13.2182L8.76392 12.5001L10.2905 11.782L9.47759 10.3036L11.1353 10.6207L11.3454 8.94604L12.5 10.1777L13.6547 8.94604L13.8647 10.6207L15.5225 10.3036L14.7095 11.782L16.2361 12.5001Z" fill="#FFDA44"/>
</svg>
