<svg width="25" height="25" viewBox="0 0 25 25" fill="none" xmlns="http://www.w3.org/2000/svg">
<path d="M25 12.5C25 19.4035 19.4035 25 12.5 25C5.59648 25 0 19.4035 0 12.5C0 12.5029 12.5 0.00141602 12.5 0C19.4035 0 25 5.59648 25 12.5Z" fill="#0052B4"/>
<path d="M12.4666 12.5H12.5C12.5 12.4887 12.5 12.4778 12.5 12.4666C12.4889 12.4777 12.4777 12.4889 12.4666 12.5Z" fill="#F0F0F0"/>
<path d="M12.5 6.52271C12.5 4.32324 12.5 2.88198 12.5 0.000976562H12.4979C5.59531 0.00209961 0 5.59805 0 12.5009H6.52173V8.82847L10.1942 12.5009H12.4666C12.4778 12.4898 12.4889 12.4787 12.5 12.4675C12.5 11.6253 12.5 10.8739 12.5 10.1952L8.82754 6.52271H12.5Z" fill="#F0F0F0"/>
<path d="M6.32393 1.63037C4.3689 2.7436 2.7436 4.3689 1.63037 6.32393V12.5H4.89126V4.89131V4.89126H12.5C12.5 3.86279 12.5 2.88301 12.5 1.63037H6.32393Z" fill="#D80027"/>
<path d="M12.5 10.9628L8.05889 6.52175H6.52173C6.52173 6.5217 6.52173 6.52175 6.52173 6.52175L12.4999 12.4999H12.5C12.5 12.4999 12.5 11.4401 12.5 10.9628Z" fill="#D80027"/>
<path d="M7.53872 14.6738L8.22476 16.1083L9.77393 15.7502L9.08018 17.181L10.326 18.1689L8.77485 18.5186L8.7792 20.1086L7.53872 19.1138L6.29829 20.1086L6.30264 18.5186L4.75146 18.1689L5.99732 17.181L5.30347 15.7502L6.85273 16.1083L7.53872 14.6738Z" fill="#F0F0F0"/>
<path d="M18.7149 17.3914L19.0579 18.1086L19.8325 17.9295L19.4856 18.6449L20.1085 19.1389L19.333 19.3137L19.3351 20.1087L18.7149 19.6113L18.0947 20.1087L18.0968 19.3137L17.3213 19.1389L17.9442 18.6449L17.5973 17.9295L18.3719 18.1086L18.7149 17.3914Z" fill="#F0F0F0"/>
<path d="M15.524 9.78271L15.867 10.5L16.6416 10.3209L16.2947 11.0363L16.9176 11.5303L16.1421 11.7051L16.1442 12.5001L15.524 12.0027L14.9038 12.5001L14.9059 11.7051L14.1304 11.5303L14.7533 11.0363L14.4064 10.3209L15.181 10.5L15.524 9.78271Z" fill="#F0F0F0"/>
<path d="M18.7149 5.43481L19.0579 6.1521L19.8325 5.97305L19.4856 6.68843L20.1085 7.18237L19.333 7.35723L19.3351 8.15225L18.7149 7.65483L18.0947 8.15225L18.0968 7.35723L17.3213 7.18237L17.9441 6.68843L17.5973 5.97305L18.3719 6.1521L18.7149 5.43481Z" fill="#F0F0F0"/>
<path d="M21.5023 8.69556L21.8453 9.41284L22.6199 9.23374L22.273 9.94912L22.8959 10.4431L22.1203 10.618L22.1225 11.4129L21.5023 10.9156L20.8821 11.4129L20.8842 10.618L20.1086 10.4431L20.7315 9.94912L20.3847 9.23374L21.1592 9.41284L21.5023 8.69556Z" fill="#F0F0F0"/>
<path d="M19.5091 12.5L19.7789 13.3304H20.6521L19.9457 13.8436L20.2155 14.6739L19.5091 14.1607L18.8028 14.6739L19.0726 13.8436L18.3662 13.3304H19.2393L19.5091 12.5Z" fill="#F0F0F0"/>
</svg>
