<svg width="25" height="25" viewBox="0 0 25 25" fill="none" xmlns="http://www.w3.org/2000/svg">
<path d="M25 12.4999C25 10.9709 24.725 9.50625 24.2225 8.15215L12.5 7.60864L0.77749 8.1521C0.275 9.50625 0 10.9709 0 12.4999C0 14.029 0.275 15.4936 0.77749 16.8477L12.5 17.3913L24.2225 16.8478C24.725 15.4936 25 14.029 25 12.4999Z" fill="#FFDA44"/>
<path d="M12.5001 24.9998C17.8747 24.9998 22.4564 21.6077 24.2226 16.8477H0.777588C2.54375 21.6077 7.12554 24.9998 12.5001 24.9998Z" fill="#6DA544"/>
<path d="M0.777588 8.1522H24.2227C22.4564 3.39219 17.8747 0 12.5001 0C7.12554 0 2.54375 3.39219 0.777588 8.1522Z" fill="#D80027"/>
</svg>
