<svg width="25" height="25" viewBox="0 0 25 25" fill="none" xmlns="http://www.w3.org/2000/svg">
<path d="M12.5 25C19.4036 25 25 19.4036 25 12.5C25 5.59644 19.4036 0 12.5 0C5.59644 0 0 5.59644 0 12.5C0 19.4036 5.59644 25 12.5 25Z" fill="#F0F0F0"/>
<path d="M25 12.5001C25 7.54438 22.116 3.26235 17.9348 1.24048V23.7598C22.116 21.7379 25 17.4559 25 12.5001Z" fill="#D80027"/>
<path d="M0 12.5001C0 17.4559 2.88403 21.7379 7.06523 23.7598V1.24048C2.88403 3.26235 0 7.54438 0 12.5001Z" fill="#D80027"/>
<path d="M14.6738 14.1306L16.8477 13.0436L15.7608 12.5001V11.4132L13.5869 12.5001L14.6738 10.3262H13.5869L12.4999 8.6958L11.4129 10.3262H10.326L11.4129 12.5001L9.23901 11.4132V12.5001L8.1521 13.0436L10.326 14.1306L9.78252 15.2175H11.9564V16.848H13.0434V15.2175H15.2173L14.6738 14.1306Z" fill="#D80027"/>
</svg>
