<svg width="55" height="55" viewBox="0 0 55 55" fill="none" xmlns="http://www.w3.org/2000/svg">
<path d="M27.2576 33.3687C29.6148 33.3687 31.5257 31.4578 31.5257 29.1006C31.5257 26.7434 29.6148 24.8325 27.2576 24.8325C24.9004 24.8325 22.9895 26.7434 22.9895 29.1006C22.9895 31.4578 24.9004 33.3687 27.2576 33.3687Z" fill="white" fill-opacity="0.7"/>
<path d="M32.5925 18.6245H21.9223C20.3703 18.6245 19.0123 19.1095 18.1393 19.9825C17.2663 20.8556 16.7812 22.2136 16.7812 23.7656V34.4358C16.7812 35.9878 17.2663 37.3459 18.2363 38.3159C19.2063 39.1889 20.4673 39.6739 22.0193 39.6739H32.5925C34.1446 39.6739 35.5026 39.1889 36.3756 38.3159C37.3456 37.4429 37.8306 36.0848 37.8306 34.5328V23.8626C37.8306 22.3106 37.3456 21.0496 36.4726 20.0795C35.5026 19.1095 34.2416 18.6245 32.5925 18.6245ZM27.2574 35.6968C23.5714 35.6968 20.6613 32.6898 20.6613 29.1007C20.6613 25.4146 23.6684 22.5046 27.2574 22.5046C30.8465 22.5046 33.9506 25.4146 33.9506 29.1007C33.9506 32.7868 30.9435 35.6968 27.2574 35.6968ZM34.1446 23.7656C33.2716 23.7656 32.5925 23.0866 32.5925 22.2136C32.5925 21.3406 33.2716 20.6615 34.1446 20.6615C35.0176 20.6615 35.6966 21.3406 35.6966 22.2136C35.6966 23.0866 35.0176 23.7656 34.1446 23.7656Z" fill="white" fill-opacity="0.7"/>
<path d="M27.4515 5.04419C14.2593 5.04419 3.58911 15.7144 3.58911 28.9066C3.58911 42.0989 14.2593 52.7691 27.4515 52.7691C40.6438 52.7691 51.314 42.0989 51.314 28.9066C51.411 15.7144 40.6438 5.04419 27.4515 5.04419ZM40.1588 34.5327C40.1588 36.7638 39.3828 38.7038 38.0247 40.0618C36.6667 41.4198 34.7267 42.0989 32.5926 42.0989H22.0194C19.8854 42.0989 17.9454 41.4198 16.5873 40.0618C15.1323 38.7038 14.4533 36.7638 14.4533 34.5327V23.8625C14.4533 19.4005 17.4604 16.2964 22.0194 16.2964H32.6896C34.9207 16.2964 36.7637 17.0724 38.1217 18.4304C39.4798 19.7885 40.1588 21.6315 40.1588 23.8625V34.5327Z" fill="white" fill-opacity="0.7"/>
</svg>
