<svg width="100" height="51" viewBox="0 0 100 51" fill="none" xmlns="http://www.w3.org/2000/svg">
<rect x="1" y="1" width="98" height="49" rx="4" stroke="white" stroke-width="2"/>
<path d="M38.1364 26.84V33H35.1884V26.84L29.3914 17.094H31.9984C32.255 17.094 32.4567 17.1563 32.6034 17.281C32.7574 17.4057 32.8857 17.5633 32.9884 17.754L35.8924 23.067C36.061 23.3823 36.2077 23.6793 36.3324 23.958C36.4644 24.2367 36.5817 24.5153 36.6844 24.794C36.7797 24.5153 36.8897 24.2367 37.0144 23.958C37.139 23.6793 37.282 23.3823 37.4434 23.067L40.3364 17.754C40.417 17.5927 40.538 17.4423 40.6994 17.303C40.8607 17.1637 41.066 17.094 41.3154 17.094H43.9334L38.1364 26.84ZM50.741 25.091C51.2837 25.091 51.7567 25.025 52.16 24.893C52.5633 24.7537 52.897 24.5593 53.161 24.31C53.4323 24.0533 53.634 23.7453 53.766 23.386C53.898 23.0193 53.964 22.6123 53.964 22.165C53.964 21.7397 53.898 21.3547 53.766 21.01C53.634 20.6653 53.436 20.372 53.172 20.13C52.908 19.888 52.5743 19.7047 52.171 19.58C51.7677 19.448 51.291 19.382 50.741 19.382H48.53V25.091H50.741ZM50.741 17.094C51.8043 17.094 52.7247 17.2187 53.502 17.468C54.2793 17.7173 54.921 18.0657 55.427 18.513C55.933 18.9603 56.307 19.4957 56.549 20.119C56.7983 20.7423 56.923 21.4243 56.923 22.165C56.923 22.935 56.7947 23.6427 56.538 24.288C56.2813 24.926 55.8963 25.476 55.383 25.938C54.8697 26.4 54.2243 26.7593 53.447 27.016C52.677 27.2727 51.775 27.401 50.741 27.401H48.53V33H45.571V17.094H50.741ZM62.1621 19.448V23.859H67.7281V26.136H62.1621V30.635H69.2241V33H59.1921V17.094H69.2241V19.448H62.1621Z" fill="white"/>
</svg>
