<?xml version="1.0" encoding="utf-8"?>
<!-- Generator: Adobe Illustrator 21.0.0, SVG Export Plug-In . SVG Version: 6.00 Build 0)  -->
<svg version="1.1" id="Layer_1" xmlns="http://www.w3.org/2000/svg" xmlns:xlink="http://www.w3.org/1999/xlink" x="0px" y="0px"
	 viewBox="0 0 314.4 283" style="enable-background:new 0 0 314.4 283;" xml:space="preserve">
<style type="text/css">
	.st0{fill:#D0D2D5;}
	.st1{opacity:0.1;enable-background:new    ;}
	.st2{fill:#3F3D56;}
	.st3{fill:#FFFFFF;}
	.st4{fill:#4645D6;}
	.st5{opacity:0.1;fill:#444053;enable-background:new    ;}
	.st6{opacity:0.8;fill:#FA5959;enable-background:new    ;}
	.st7{opacity:0.8;fill:#FED253;enable-background:new    ;}
	.st8{opacity:0.8;fill:#8CCF4D;enable-background:new    ;}
	.st9{fill:#ECECEC;}
	.st10{fill:#E1E1E1;}
	.st11{fill:#FAFAFA;}
	.st12{fill:#1A2E35;}
	.st13{fill:#FF4F5B;}
	.st14{opacity:0.3;}
	.st15{opacity:0.3;enable-background:new    ;}
</style>
<path class="st0" d="M198.5,263.8l-81.2-1l0.3-2l3.9-33.3h71.3l5.2,33.3l0.4,2.5L198.5,263.8z"/>
<path class="st1" d="M198.5,263.2H158l-40.6-0.5l0.3-2h80.5L198.5,263.2z"/>
<path class="st0" d="M211.6,261.2H103.8v2.5h107.8V261.2z"/>
<path class="st2" d="M314.4,27.4c0-3.6-3-6.6-6.7-6.6H6.7c-3.7,0-6.7,3-6.7,6.6v176.8h314.4V27.4z"/>
<path class="st0" d="M0,202.5v20.7c0,3.6,3,6.5,6.7,6.5h300.9c3.7,0,6.7-2.9,6.7-6.5v-20.7H0z"/>
<path class="st3" d="M302.9,31.9H13v158.9h289.9V31.9z"/>
<path class="st4" d="M158.8,221.8c2.1,0,4.2-1,5.5-2.6c0.2-0.3,0.4-0.5,0.5-0.8l-3.9-0.6l4.2,0c0.8-1.7,0.9-3.7,0.1-5.4l-5.6,2.8
	l5.1-3.7c-2-3.3-6.2-4.4-9.6-2.5c-3.4,1.9-4.5,6.1-2.6,9.3c0.2,0.3,0.4,0.5,0.5,0.8C154.6,220.9,156.6,221.8,158.8,221.8z"/>
<path class="st1" d="M165.8,229.7l32.4,31.5l-5-31.5H165.8z"/>
<path class="st5" d="M303,31.9H12.8v9.3H303V31.9z"/>
<path class="st6" d="M18,38.3c1,0,1.8-0.8,1.8-1.7c0-1-0.8-1.7-1.8-1.7c-1,0-1.8,0.8-1.8,1.7C16.2,37.5,17,38.3,18,38.3z"/>
<path class="st7" d="M22.8,38.3c1,0,1.8-0.8,1.8-1.7c0-1-0.8-1.7-1.8-1.7c-1,0-1.8,0.8-1.8,1.7C21.1,37.5,21.8,38.3,22.8,38.3z"/>
<path class="st8" d="M27.7,38.3c1,0,1.8-0.8,1.8-1.7c0-1-0.8-1.7-1.8-1.7s-1.8,0.8-1.8,1.7C25.9,37.5,26.7,38.3,27.7,38.3z"/>
<path class="st9" d="M118.7,91.1H16.9v66.1h101.9V91.1z"/>
<path class="st10" d="M118.7,91.1H16.9v6.6h101.9V91.1z"/>
<path class="st11" d="M21.3,94.4c0,0.4-0.4,0.8-0.8,0.8c-0.5,0-0.8-0.4-0.8-0.8c0-0.4,0.4-0.8,0.8-0.8C20.9,93.7,21.3,94,21.3,94.4z
	"/>
<path class="st11" d="M23.9,94.4c0,0.4-0.4,0.8-0.8,0.8c-0.5,0-0.8-0.4-0.8-0.8c0-0.4,0.4-0.8,0.8-0.8C23.6,93.7,23.9,94,23.9,94.4z
	"/>
<path class="st11" d="M26.6,94.4c0,0.4-0.4,0.8-0.8,0.8c-0.5,0-0.8-0.4-0.8-0.8c0-0.4,0.4-0.8,0.8-0.8C26.2,93.7,26.6,94,26.6,94.4z
	"/>
<path class="st9" d="M298.3,89.1H196.4v66.1h101.9V89.1z"/>
<path class="st10" d="M298.3,89.1H196.4v6.6h101.9V89.1z"/>
<path class="st11" d="M200.9,92.5c0,0.4-0.4,0.8-0.8,0.8c-0.5,0-0.8-0.4-0.8-0.8c0-0.4,0.4-0.8,0.8-0.8
	C200.5,91.7,200.9,92,200.9,92.5z"/>
<path class="st11" d="M203.5,92.5c0,0.4-0.4,0.8-0.8,0.8c-0.5,0-0.8-0.4-0.8-0.8c0-0.4,0.4-0.8,0.8-0.8
	C203.1,91.7,203.5,92,203.5,92.5z"/>
<path class="st11" d="M206.2,92.5c0,0.4-0.4,0.8-0.8,0.8c-0.5,0-0.8-0.4-0.8-0.8c0-0.4,0.4-0.8,0.8-0.8
	C205.8,91.7,206.2,92,206.2,92.5z"/>
<path class="st3" d="M167.5,75.6h-130V160h130V75.6z"/>
<path class="st9" d="M167.6,75h-130v8.4h130V75z"/>
<path class="st11" d="M44.5,78.6c0,0.5-0.5,0.9-1,0.9c-0.6,0-1-0.4-1-0.9c0-0.5,0.5-0.9,1-0.9C44.1,77.7,44.5,78.1,44.5,78.6z"/>
<path class="st11" d="M47.9,78.6c0,0.5-0.5,0.9-1,0.9c-0.6,0-1-0.4-1-0.9c0-0.5,0.5-0.9,1-0.9C47.4,77.7,47.9,78.1,47.9,78.6z"/>
<path class="st11" d="M51.3,78.6c0,0.5-0.5,0.9-1,0.9c-0.6,0-1-0.4-1-0.9c0-0.5,0.5-0.9,1-0.9C50.8,77.7,51.3,78.1,51.3,78.6z"/>
<path class="st12" d="M167.6,159.4c0,0,0-0.5,0-1.5c0-1,0-2.5,0-4.5c0-3.9,0-9.6,0-17c0-14.7,0-35.7-0.1-61.4l0.1,0.1
	c-35.8,0-81,0-130,0l0.2-0.2c0,30.1,0,58.7,0,84.4l-0.2-0.2c38.3,0,70.8,0,93.6,0.1c11.5,0,20.5,0,26.7,0c3.1,0,5.5,0,7.1,0
	c0.8,0,1.4,0,1.8,0C167.4,159.4,167.6,159.4,167.6,159.4s-0.2,0-0.6,0s-1,0-1.8,0c-1.6,0-4,0-7.1,0c-6.2,0-15.3,0-26.7,0
	c-22.9,0-55.5,0-93.8,0.1h-0.2v-0.2c0-25.8,0-54.3,0-84.4v-0.2h0.2c49,0,94.1,0,130,0h0.1V75c0,25.8,0,46.9-0.1,61.5
	c0,7.3,0,13,0,16.9c0,1.9,0,3.4,0,4.4C167.6,158.9,167.6,159.4,167.6,159.4z"/>
<path class="st4" d="M75.7,122.1H46.1v1.9h29.6V122.1z"/>
<path class="st4" d="M113.9,95.5H84.3v1.9h29.6V95.5z"/>
<path class="st12" d="M157.8,102.7c0,0.1-16.4,0.2-36.8,0.2c-20.3,0-36.8-0.1-36.8-0.2c0-0.1,16.4-0.2,36.8-0.2
	C141.3,102.5,157.8,102.5,157.8,102.7z"/>
<path class="st12" d="M157.8,106.8c0,0.1-16.4,0.2-36.8,0.2c-20.3,0-36.8-0.1-36.8-0.2s16.4-0.2,36.8-0.2
	C141.3,106.6,157.8,106.7,157.8,106.8z"/>
<path class="st12" d="M157.8,111c0,0.1-16.4,0.2-36.8,0.2c-20.3,0-36.8-0.1-36.8-0.2c0-0.1,16.4-0.2,36.8-0.2
	C141.3,110.8,157.8,110.9,157.8,111z"/>
<path class="st12" d="M157.8,115.2c0,0.1-16.4,0.2-36.8,0.2c-20.3,0-36.8-0.1-36.8-0.2s16.4-0.2,36.8-0.2
	C141.3,115,157.8,115.1,157.8,115.2z"/>
<path class="st12" d="M157.8,119.4c0,0.1-16.4,0.2-36.8,0.2c-20.3,0-36.8-0.1-36.8-0.2c0-0.1,16.4-0.2,36.8-0.2
	C141.3,119.2,157.8,119.3,157.8,119.4z"/>
<path class="st12" d="M113,123.6c0,0.1-6.4,0.2-14.4,0.2c-7.9,0-14.4-0.1-14.4-0.2s6.4-0.2,14.4-0.2
	C106.5,123.4,113,123.5,113,123.6z"/>
<path class="st12" d="M157.2,131.7c0,0.1-10.8,0.2-24.1,0.2c-13.4,0-24.1-0.1-24.1-0.2c0-0.1,10.8-0.2,24.1-0.2
	C146.4,131.5,157.2,131.6,157.2,131.7z"/>
<path class="st12" d="M157.2,136.1c0,0.1-10.8,0.2-24.1,0.2c-13.4,0-24.1-0.1-24.1-0.2c0-0.1,10.8-0.2,24.1-0.2
	C146.4,136,157.2,136,157.2,136.1z"/>
<path class="st12" d="M157.2,140.6c0,0.1-10.8,0.2-24.1,0.2c-13.4,0-24.1-0.1-24.1-0.2s10.8-0.2,24.1-0.2
	C146.4,140.4,157.2,140.5,157.2,140.6z"/>
<path class="st12" d="M157.2,145c0,0.1-10.8,0.2-24.1,0.2c-13.4,0-24.1-0.1-24.1-0.2c0-0.1,10.8-0.2,24.1-0.2
	C146.4,144.8,157.2,144.9,157.2,145z"/>
<path class="st12" d="M75.7,131.3c0,0.1-6.5,0.2-14.4,0.2c-8,0-14.4-0.1-14.4-0.2c0-0.1,6.4-0.2,14.4-0.2
	C69.3,131.1,75.7,131.2,75.7,131.3z"/>
<path class="st12" d="M75.7,134.7c0,0.1-6.5,0.2-14.4,0.2c-8,0-14.4-0.1-14.4-0.2c0-0.1,6.4-0.2,14.4-0.2S75.7,134.6,75.7,134.7z"/>
<path class="st12" d="M75.7,138.2c0,0.1-6.5,0.2-14.4,0.2c-8,0-14.4-0.1-14.4-0.2c0-0.1,6.4-0.2,14.4-0.2S75.7,138.1,75.7,138.2z"/>
<path class="st12" d="M75.7,141.7c0,0.1-6.5,0.2-14.4,0.2c-8,0-14.4-0.1-14.4-0.2c0-0.1,6.4-0.2,14.4-0.2S75.7,141.6,75.7,141.7z"/>
<path class="st12" d="M75.7,145.2c0,0.1-6.5,0.2-14.4,0.2c-8,0-14.4-0.1-14.4-0.2s6.4-0.2,14.4-0.2S75.7,145.1,75.7,145.2z"/>
<path class="st13" d="M105.2,129.6h-21v19.7h21V129.6z"/>
<g class="st14">
	<g class="st14">
		<path class="st15" d="M85.9,147.5l5.8-10.1l4.7,6.5l2.9-3.4l4.3,7.1H85.9z"/>
	</g>
</g>
<g class="st14">
	<g class="st14">
		<path class="st15" d="M98.5,135.5c0,0.8-0.7,1.5-1.5,1.5c-0.8,0-1.5-0.7-1.5-1.5s0.7-1.5,1.5-1.5C97.8,134,98.5,134.6,98.5,135.5z
			"/>
	</g>
</g>
<path class="st15" d="M103.6,147.6C103.6,147.6,103.6,147.5,103.6,147.6c0-0.1,0-0.2,0-0.3c0-0.2,0-0.5,0-0.9c0-0.8,0-1.9,0-3.4
	c0-2.9,0-7,0-11.9l0.1,0.1c-5.1,0-11.2,0-17.7,0c0,0,0.2-0.2,0.1-0.1v0v0.1v0.1v0.3v0.6c0,0.4,0,0.8,0,1.1c0,0.8,0,1.5,0,2.2
	c0,1.5,0,2.9,0,4.2c0,2.7,0,5.3,0,7.8l-0.1-0.1c5.3,0,9.7,0,12.8,0c1.5,0,2.8,0,3.6,0c0.4,0,0.7,0,1,0
	C103.4,147.5,103.5,147.5,103.6,147.6C103.6,147.6,103.6,147.6,103.6,147.6S103.6,147.6,103.6,147.6c-0.1,0-0.2,0-0.3,0
	c-0.2,0-0.5,0-1,0c-0.8,0-2.1,0-3.6,0c-3.1,0-7.6,0-12.9,0h-0.1v-0.1c0-2.4,0-5,0-7.8c0-1.4,0-2.8,0-4.2c0-0.7,0-1.5,0-2.2
	c0-0.4,0-0.8,0-1.1v-0.6v-0.3v-0.1v0c-0.1,0.1,0.1-0.1,0.1-0.1c6.5,0,12.6,0,17.7,0h0.1v0.1c0,4.9,0,9.1,0,11.9c0,1.4,0,2.6,0,3.3
	c0,0.4,0,0.7,0,0.9C103.7,147.5,103.7,147.5,103.6,147.6C103.6,147.6,103.6,147.6,103.6,147.6z"/>
<path class="st4" d="M74.5,90H44.9v27.8h29.6V90z"/>
<g class="st14">
	<g class="st14">
		<path class="st15" d="M47.2,115.4l8.2-14.3l6.7,9.1l4.1-4.9l6.1,10H47.2z"/>
	</g>
</g>
<g class="st14">
	<g class="st14">
		<path class="st15" d="M62.8,100.4c1.2,0,2.1-0.9,2.1-2.1c0-1.1-1-2.1-2.1-2.1s-2.1,0.9-2.1,2.1C60.7,99.5,61.7,100.4,62.8,100.4z"
			/>
	</g>
</g>
<path class="st15" d="M72.2,115.5c0,0,0,0,0-0.1c0-0.1,0-0.2,0-0.3c0-0.3,0-0.7,0-1.2c0-1.1,0-2.7,0-4.7c0-4.1,0-9.9,0-16.8l0.1,0.1
	c-7.2,0-15.9,0-25,0c0,0,0.3-0.3,0.1-0.1v0v0v0.1v0.2v0.4v0.8c0,0.5,0,1.1,0,1.6c0,1.1,0,2.1,0,3.1c0,2,0,4,0,6c0,3.9,0,7.6,0,11
	l-0.1-0.1c7.5,0,13.7,0,18.1,0c2.2,0,3.9,0,5.1,0c0.6,0,1,0,1.4,0C71.9,115.5,72.1,115.5,72.2,115.5
	C72.2,115.5,72.2,115.5,72.2,115.5S72.2,115.5,72.2,115.5c-0.2,0-0.3,0-0.4,0c-0.3,0-0.8,0-1.3,0c-1.2,0-2.9,0-5.1,0
	c-4.4,0-10.7,0-18.2,0h-0.1v-0.1c0-3.4,0-7.1,0-11c0-1.9,0-3.9,0-6c0-1,0-2,0-3.1c0-0.5,0-1.1,0-1.6V93v-0.4v-0.2v0v0v0
	c-0.1,0.1,0.2-0.2,0.1-0.1c9.2,0,17.8,0,25,0h0.1v0.1c0,7,0,12.8,0,16.9c0,2,0,3.6,0,4.7c0,0.5,0,0.9,0,1.2
	C72.3,115.3,72.3,115.3,72.2,115.5C72.2,115.5,72.2,115.5,72.2,115.5z"/>
<path class="st3" d="M278.1,79.6H152.3v81.7h125.9V79.6z"/>
<path class="st9" d="M278.2,79.1H152.4v8.2h125.9V79.1z"/>
<path class="st11" d="M159,82.6c0,0.5-0.5,0.9-1,0.9s-1-0.4-1-0.9c0-0.5,0.5-0.9,1-0.9S159,82.1,159,82.6z"/>
<path class="st11" d="M162.3,82.6c0,0.5-0.5,0.9-1,0.9c-0.5,0-1-0.4-1-0.9c0-0.5,0.5-0.9,1-0.9C161.8,81.6,162.3,82.1,162.3,82.6z"
	/>
<path class="st11" d="M165.6,82.6c0,0.5-0.5,0.9-1,0.9c-0.5,0-1-0.4-1-0.9c0-0.5,0.5-0.9,1-0.9C165.1,81.6,165.6,82.1,165.6,82.6z"
	/>
<path class="st12" d="M278.2,160.8c0,0,0-0.5,0-1.5s0-2.4,0-4.3c0-3.8,0-9.3,0-16.4c0-14.2,0-34.6-0.1-59.5l0.1,0.1
	c-34.7,0-78.4,0-125.9,0l0.2-0.2c0,29.1,0,56.8,0,81.7l-0.2-0.2c37,0,68.5,0,90.7,0.1c11.1,0,19.9,0,25.9,0c3,0,5.3,0,6.9,0
	c0.8,0,1.4,0,1.8,0C278,160.8,278.2,160.8,278.2,160.8s-0.2,0-0.6,0s-1,0-1.8,0c-1.5,0-3.9,0-6.8,0c-6,0-14.8,0-25.9,0
	c-22.2,0-53.7,0-90.8,0.1h-0.2v-0.2c0-24.9,0-52.6,0-81.7v-0.2h0.2c47.4,0,91.2,0,125.9,0h0.1V79c0,24.9,0,45.4-0.1,59.6
	c0,7.1,0,12.6,0,16.4c0,1.9,0,3.3,0,4.3C278.3,160.3,278.2,160.8,278.2,160.8z"/>
<path class="st13" d="M189.2,124.7h-28.6v1.9h28.6V124.7z"/>
<path class="st13" d="M226.1,98.9h-28.6v1.9h28.6V98.9z"/>
<path class="st12" d="M268.7,105.8c0,0.1-15.9,0.2-35.6,0.2c-19.6,0-35.6-0.1-35.6-0.2s15.9-0.2,35.6-0.2
	C252.8,105.7,268.7,105.7,268.7,105.8z"/>
<path class="st12" d="M268.7,109.9c0,0.1-15.9,0.2-35.6,0.2c-19.6,0-35.6-0.1-35.6-0.2s15.9-0.2,35.6-0.2
	C252.8,109.7,268.7,109.8,268.7,109.9z"/>
<path class="st12" d="M268.7,113.9c0,0.1-15.9,0.2-35.6,0.2c-19.6,0-35.6-0.1-35.6-0.2c0-0.1,15.9-0.2,35.6-0.2
	C252.8,113.8,268.7,113.8,268.7,113.9z"/>
<path class="st12" d="M268.7,118c0,0.1-15.9,0.2-35.6,0.2c-19.6,0-35.6-0.1-35.6-0.2c0-0.1,15.9-0.2,35.6-0.2
	C252.8,117.8,268.7,117.9,268.7,118z"/>
<path class="st12" d="M268.7,122.1c0,0.1-15.9,0.2-35.6,0.2c-19.6,0-35.6-0.1-35.6-0.2s15.9-0.2,35.6-0.2
	C252.8,121.9,268.7,121.9,268.7,122.1z"/>
<path class="st12" d="M225.3,126.1c0,0.1-6.2,0.2-13.9,0.2s-13.9-0.1-13.9-0.2c0-0.1,6.2-0.2,13.9-0.2
	C219.1,125.9,225.3,126,225.3,126.1z"/>
<path class="st12" d="M268.2,133.9c0,0.1-10.5,0.2-23.4,0.2c-12.9,0-23.4-0.1-23.4-0.2s10.5-0.2,23.4-0.2
	C257.7,133.8,268.2,133.8,268.2,133.9z"/>
<path class="st12" d="M268.2,138.3c0,0.1-10.5,0.2-23.4,0.2c-12.9,0-23.4-0.1-23.4-0.2c0-0.1,10.5-0.2,23.4-0.2
	C257.7,138.1,268.2,138.1,268.2,138.3z"/>
<path class="st12" d="M268.2,142.6c0,0.1-10.5,0.2-23.4,0.2c-12.9,0-23.4-0.1-23.4-0.2c0-0.1,10.5-0.2,23.4-0.2
	C257.7,142.4,268.2,142.5,268.2,142.6z"/>
<path class="st12" d="M268.2,146.8c0,0.1-10.5,0.2-23.4,0.2c-12.9,0-23.4-0.1-23.4-0.2s10.5-0.2,23.4-0.2
	C257.7,146.7,268.2,146.7,268.2,146.8z"/>
<path class="st12" d="M189.3,133.5c0,0.1-6.2,0.2-13.9,0.2c-7.7,0-13.9-0.1-13.9-0.2c0-0.1,6.2-0.2,13.9-0.2
	C183,133.4,189.3,133.5,189.3,133.5z"/>
<path class="st12" d="M189.3,136.9c0,0.1-6.2,0.2-13.9,0.2c-7.7,0-13.9-0.1-13.9-0.2c0-0.1,6.2-0.2,13.9-0.2
	C183,136.7,189.3,136.8,189.3,136.9z"/>
<path class="st12" d="M189.3,140.3c0,0.1-6.2,0.2-13.9,0.2c-7.7,0-13.9-0.1-13.9-0.2s6.2-0.2,13.9-0.2
	C183,140.1,189.3,140.2,189.3,140.3z"/>
<path class="st12" d="M189.3,143.7c0,0.1-6.2,0.2-13.9,0.2c-7.7,0-13.9-0.1-13.9-0.2c0-0.1,6.2-0.2,13.9-0.2
	C183,143.5,189.3,143.6,189.3,143.7z"/>
<path class="st12" d="M189.3,147.1c0,0.1-6.2,0.2-13.9,0.2c-7.7,0-13.9-0.1-13.9-0.2c0-0.1,6.2-0.2,13.9-0.2
	C183,146.9,189.3,147,189.3,147.1z"/>
<path class="st13" d="M217.9,131.9h-20.3v19h20.3V131.9z"/>
<g class="st14">
	<g class="st14">
		<path class="st15" d="M199.1,149.3l5.7-9.8l4.6,6.3l2.8-3.3l4.1,6.8H199.1z"/>
	</g>
</g>
<g class="st14">
	<g class="st14">
		<path class="st15" d="M211.3,137.6c0,0.8-0.6,1.4-1.5,1.4c-0.8,0-1.5-0.6-1.5-1.4s0.6-1.4,1.5-1.4
			C210.7,136.2,211.3,136.8,211.3,137.6z"/>
	</g>
</g>
<path class="st15" d="M216.3,149.4C216.3,149.4,216.3,149.3,216.3,149.4c0-0.1,0-0.2,0-0.3c0-0.2,0-0.5,0-0.8c0-0.8,0-1.9,0-3.2
	c0-2.8,0-6.8,0-11.5l0.1,0.1c-5,0-10.8,0-17.1,0c0,0,0.2-0.2,0.1-0.1v0v0.1v0.1v0.3v0.5c0,0.4,0,0.7,0,1.1c0,0.7,0,1.4,0,2.1
	c0,1.4,0,2.8,0,4.1c0,2.7,0,5.2,0,7.5l-0.1-0.1c5.1,0,9.4,0,12.4,0c1.5,0,2.7,0,3.5,0c0.4,0,0.7,0,0.9,0
	C216.1,149.3,216.2,149.3,216.3,149.4C216.2,149.4,216.3,149.4,216.3,149.4S216.2,149.4,216.3,149.4c-0.1,0-0.2,0-0.3,0
	c-0.2,0-0.5,0-0.9,0c-0.8,0-2,0-3.5,0c-3,0-7.3,0-12.4,0H199v-0.1c0-2.3,0-4.9,0-7.5c0-1.3,0-2.7,0-4.1c0-0.7,0-1.4,0-2.1
	c0-0.4,0-0.7,0-1.1V134v-0.3v-0.1v-0.1c-0.1,0.1,0.1-0.1,0.1-0.1c6.3,0,12.2,0,17.1,0h0.1v0.1c0,4.8,0,8.7,0,11.5c0,1.4,0,2.5,0,3.2
	c0,0.4,0,0.7,0,0.8C216.3,149.2,216.3,149.3,216.3,149.4C216.3,149.4,216.3,149.4,216.3,149.4z"/>
<path class="st3" d="M247.4,61.8H81.9v107.5h165.5V61.8z"/>
<path class="st10" d="M247.5,61H82v10.7h165.5V61z"/>
<path class="st11" d="M90.8,65.6c0,0.7-0.6,1.2-1.3,1.2s-1.3-0.5-1.3-1.2c0-0.7,0.6-1.2,1.3-1.2S90.8,64.9,90.8,65.6z"/>
<path class="st11" d="M95.1,65.6c0,0.7-0.6,1.2-1.3,1.2c-0.7,0-1.3-0.5-1.3-1.2c0-0.7,0.6-1.2,1.3-1.2
	C94.5,64.4,95.1,64.9,95.1,65.6z"/>
<path class="st11" d="M99.4,65.6c0,0.7-0.6,1.2-1.3,1.2c-0.7,0-1.3-0.5-1.3-1.2c0-0.7,0.6-1.2,1.3-1.2
	C98.8,64.4,99.4,64.9,99.4,65.6z"/>
<path class="st12" d="M247.6,168.5c0-1.1,0-42-0.1-107.5l0.1,0.1c-45.6,0-103.2,0-165.5,0l0.2-0.2c0,38.3,0,74.7,0,107.5l-0.2-0.2
	C179.5,168.4,246.1,168.5,247.6,168.5c-1.5,0-68,0.1-165.5,0.2h-0.2v-0.2c0-32.8,0-69.2,0-107.5v-0.2h0.2c62.3,0,119.9,0,165.5,0
	h0.1V61C247.6,126.5,247.6,167.3,247.6,168.5z"/>
<path class="st4" d="M130.5,121H92.8v2.4h37.6V121z"/>
<path class="st4" d="M179.1,87.1h-37.6v2.4h37.6V87.1z"/>
<path class="st12" d="M235,96.2c0,0.1-21,0.2-46.8,0.2s-46.8-0.1-46.8-0.2c0-0.1,21-0.2,46.8-0.2S235,96.1,235,96.2z"/>
<path class="st12" d="M235,101.5c0,0.1-21,0.2-46.8,0.2s-46.8-0.1-46.8-0.2s21-0.2,46.8-0.2S235,101.4,235,101.5z"/>
<path class="st12" d="M235,106.9c0,0.1-21,0.2-46.8,0.2s-46.8-0.1-46.8-0.2s21-0.2,46.8-0.2S235,106.8,235,106.9z"/>
<path class="st12" d="M235,112.2c0,0.1-21,0.2-46.8,0.2s-46.8-0.1-46.8-0.2s21-0.2,46.8-0.2S235,112.1,235,112.2z"/>
<path class="st12" d="M235,117.5c0,0.1-21,0.2-46.8,0.2s-46.8-0.1-46.8-0.2s21-0.2,46.8-0.2S235,117.4,235,117.5z"/>
<path class="st12" d="M178,122.8c0,0.1-8.2,0.2-18.3,0.2s-18.3-0.1-18.3-0.2s8.2-0.2,18.3-0.2C169.8,122.7,178,122.8,178,122.8z"/>
<path class="st12" d="M234.3,133.2c0,0.1-13.8,0.2-30.8,0.2s-30.8-0.1-30.8-0.2s13.8-0.2,30.8-0.2S234.3,133.1,234.3,133.2z"/>
<path class="st12" d="M234.3,138.8c0,0.1-13.8,0.2-30.8,0.2s-30.8-0.1-30.8-0.2c0-0.1,13.8-0.2,30.8-0.2S234.3,138.8,234.3,138.8z"
	/>
<path class="st12" d="M234.3,144.5c0,0.1-13.8,0.2-30.8,0.2s-30.8-0.1-30.8-0.2c0-0.1,13.8-0.2,30.8-0.2S234.3,144.4,234.3,144.5z"
	/>
<path class="st12" d="M234.3,150.1c0,0.1-13.8,0.2-30.8,0.2s-30.8-0.1-30.8-0.2s13.8-0.2,30.8-0.2S234.3,150.1,234.3,150.1z"/>
<path class="st12" d="M130.5,132.7c0,0.1-8.2,0.2-18.3,0.2c-10.1,0-18.3-0.1-18.3-0.2c0-0.1,8.2-0.2,18.3-0.2
	C122.3,132.5,130.5,132.5,130.5,132.7z"/>
<path class="st12" d="M130.5,137.1c0,0.1-8.2,0.2-18.3,0.2c-10.1,0-18.3-0.1-18.3-0.2c0-0.1,8.2-0.2,18.3-0.2
	C122.3,136.9,130.5,137,130.5,137.1z"/>
<path class="st12" d="M130.5,141.5c0,0.1-8.2,0.2-18.3,0.2c-10.1,0-18.3-0.1-18.3-0.2s8.2-0.2,18.3-0.2
	C122.3,141.4,130.5,141.4,130.5,141.5z"/>
<path class="st12" d="M130.5,146c0,0.1-8.2,0.2-18.3,0.2c-10.1,0-18.3-0.1-18.3-0.2c0-0.1,8.2-0.2,18.3-0.2
	C122.3,145.8,130.5,145.9,130.5,146z"/>
<path class="st12" d="M130.5,150.4c0,0.1-8.2,0.2-18.3,0.2c-10.1,0-18.3-0.1-18.3-0.2s8.2-0.2,18.3-0.2
	C122.3,150.2,130.5,150.3,130.5,150.4z"/>
<path class="st4" d="M168.1,130.5h-26.7v25h26.7V130.5z"/>
<g class="st14">
	<g class="st14">
		<path class="st15" d="M143.5,153.4l7.4-12.9l6,8.2l3.7-4.4l5.5,9H143.5z"/>
	</g>
</g>
<g class="st14">
	<g class="st14">
		<path class="st15" d="M159.5,138c0,1-0.9,1.9-1.9,1.9s-1.9-0.8-1.9-1.9c0-1,0.9-1.9,1.9-1.9S159.5,136.9,159.5,138z"/>
	</g>
</g>
<path class="st15" d="M166,153.5C166,153.5,166,153.4,166,153.5c0-0.2,0-0.3,0-0.4c0-0.3,0-0.7,0-1.1c0-1,0-2.4,0-4.2
	c0-3.7,0-8.9,0-15.1l0.1,0.1c-6.5,0-14.3,0-22.6,0c0,0,0.2-0.2,0.1-0.1v0v0v0.1v0.2v0.4v0.7c0,0.5,0,0.9,0,1.4c0,0.9,0,1.9,0,2.8
	c0,1.9,0,3.6,0,5.4c0,3.5,0,6.8,0,9.9l-0.1-0.1c6.7,0,12.3,0,16.3,0c2,0,3.5,0,4.6,0c0.5,0,0.9,0,1.2,0
	C165.8,153.4,165.9,153.4,166,153.5C166,153.5,166,153.5,166,153.5S166,153.5,166,153.5c-0.2,0-0.3,0-0.4,0c-0.3,0-0.7,0-1.2,0
	c-1,0-2.6,0-4.6,0c-4,0-9.6,0-16.4,0h-0.1v-0.1c0-3,0-6.4,0-9.9c0-1.8,0-3.6,0-5.4c0-0.9,0-1.9,0-2.8c0-0.5,0-0.9,0-1.4v-0.7v-0.4
	v-0.2v-0.1v0v0c-0.1,0.1,0.1-0.1,0.1-0.1c8.3,0,16,0,22.6,0h0.1v0.1c0,6.3,0,11.5,0,15.2c0,1.8,0,3.2,0,4.2c0,0.5,0,0.8,0,1.1
	c0,0.1,0,0.2,0,0.3C166,153.4,166,153.5,166,153.5z"/>
<path class="st4" d="M129,80.1H91.3v35.4H129V80.1z"/>
<g class="st14">
	<g class="st14">
		<path class="st15" d="M94.2,112.5l10.4-18.2l8.6,11.6l5.2-6.1l7.7,12.7H94.2z"/>
	</g>
</g>
<g class="st14">
	<g class="st14">
		<path class="st15" d="M116.8,90.7c0,1.5-1.2,2.7-2.7,2.7c-1.5,0-2.7-1.2-2.7-2.7c0-1.5,1.2-2.7,2.7-2.7
			C115.6,88.1,116.8,89.3,116.8,90.7z"/>
	</g>
</g>
<path class="st15" d="M126.1,112.6c0,0,0,0,0-0.1c0-0.1,0-0.2,0-0.4c0-0.4,0-0.9,0-1.6c0-1.4,0-3.4,0-6c0-5.2,0-12.5-0.1-21.4
	l0.1,0.1c-9.3,0-20.2,0-31.9,0c0,0,0.3-0.3,0.2-0.2v0v0v0.1v0.3V84v1c0,0.7,0,1.3,0,2c0,1.3,0,2.7,0,3.9c0,2.6,0,5.2,0,7.6
	c0,4.9,0,9.6,0,14l-0.1-0.1c9.5,0,17.5,0,23.1,0.1c2.8,0,5,0,6.5,0c0.7,0,1.3,0,1.7,0C125.7,112.6,125.9,112.6,126.1,112.6
	C126,112.6,126.1,112.6,126.1,112.6s0,0-0.1,0c-0.1,0-0.2,0-0.4,0c-0.4,0-1,0-1.7,0c-1.5,0-3.7,0-6.5,0c-5.6,0-13.6,0-23.1,0.1h-0.1
	v-0.1c0-4.3,0-9,0-14c0-2.5,0-5,0-7.6c0-1.3,0-2.6,0-3.9c0-0.7,0-1.3,0-2v-1v-0.5v-0.3v-0.1v0v0c-0.2,0.1,0.2-0.2,0.2-0.2
	c11.7,0,22.6,0,31.9,0h0.1V83c0,8.9,0,16.3-0.1,21.5c0,2.6,0,4.6,0,6c0,0.7,0,1.2,0,1.5c0,0.2,0,0.3,0,0.4
	C126.1,112.6,126.1,112.6,126.1,112.6z"/>
</svg>
