<svg width="258" height="239" viewBox="0 0 258 239" fill="none" xmlns="http://www.w3.org/2000/svg">
<g clip-path="url(#clip0)">
<g opacity="0.5">
<path opacity="0.5" d="M184.642 39.9529H47.2336V224.852H184.642V39.9529Z" fill="url(#paint0_linear)"/>
</g>
<path d="M182.138 42.4634H49.0229V220.913H182.138V42.4634Z" fill="#F2F2F2"/>
<path d="M105.204 49.9863H59.4011V51.4193H105.204V49.9863Z" fill="#E0E0E0"/>
<path opacity="0.7" d="M105.204 56.4366H59.4011V57.8696H105.204V56.4366Z" fill="#4645D6"/>
<path d="M157.806 49.9863H112.003V51.4193H157.806V49.9863Z" fill="#E0E0E0"/>
<path d="M164.961 90.8387H119.158V92.2717H164.961V90.8387Z" fill="#E0E0E0"/>
<path d="M166.036 94.7787H120.233V96.2116H166.036V94.7787Z" fill="#E0E0E0"/>
<path d="M168.184 98.7208H122.382V100.154H168.184V98.7208Z" fill="#E0E0E0"/>
<path d="M164.961 154.261H119.158V155.694H164.961V154.261Z" fill="#E0E0E0"/>
<path d="M166.036 158.204H120.233V159.637H166.036V158.204Z" fill="#E0E0E0"/>
<path d="M168.184 162.144H122.382V163.576H168.184V162.144Z" fill="#E0E0E0"/>
<g opacity="0.5">
<path opacity="0.5" d="M108.424 76.144H59.7598V125.594H108.424V76.144Z" fill="url(#paint1_linear)"/>
</g>
<path d="M107.965 77.2213H60.0662V124.52H107.965V77.2213Z" fill="#F5F5F5"/>
<g opacity="0.5">
<path opacity="0.5" d="M106.43 80.0874H61.7546V110.903H106.43V80.0874Z" fill="url(#paint2_linear)"/>
</g>
<path d="M106.12 80.4463H62.0608V110.188H106.12V80.4463Z" fill="white"/>
<path opacity="0.4" d="M58.3257 109.114L69.421 91.913L74.0723 99.4366L84.092 89.0472L92.6808 99.4366L100.194 84.0304L119.516 114.846L56.8948 112.695L58.3257 109.114Z" fill="#4645D6"/>
<path opacity="0.4" d="M66.9145 87.9699C68.6931 87.9699 70.1349 86.5261 70.1349 84.7451C70.1349 82.9641 68.6931 81.5203 66.9145 81.5203C65.1359 81.5203 63.6941 82.9641 63.6941 84.7451C63.6941 86.5261 65.1359 87.9699 66.9145 87.9699Z" fill="#4645D6"/>
<g opacity="0.5">
<path opacity="0.5" d="M108.424 139.57H59.7598V189.019H108.424V139.57Z" fill="url(#paint3_linear)"/>
</g>
<path d="M107.965 140.644H60.0662V187.943H107.965V140.644Z" fill="#F5F5F5"/>
<g opacity="0.5">
<path opacity="0.5" d="M106.43 143.513H61.7546V174.329H106.43V143.513Z" fill="url(#paint4_linear)"/>
</g>
<path d="M106.12 143.869H62.0608V173.61H106.12V143.869Z" fill="white"/>
<path opacity="0.4" d="M58.3257 172.537L69.421 155.336L74.0723 162.862L84.092 152.47L92.6808 162.862L100.194 147.453L119.516 178.269L56.8948 176.121L58.3257 172.537Z" fill="#BDBDBD"/>
<path opacity="0.4" d="M66.9145 151.396C68.6931 151.396 70.1349 149.952 70.1349 148.171C70.1349 146.39 68.6931 144.946 66.9145 144.946C65.1359 144.946 63.6941 146.39 63.6941 148.171C63.6941 149.952 65.1359 151.396 66.9145 151.396Z" fill="#BDBDBD"/>
<g opacity="0.5">
<path opacity="0.5" d="M103.397 30.8176L67.4065 212.17L202.179 238.99L238.17 57.6379L103.397 30.8176Z" fill="url(#paint5_linear)"/>
</g>
<path d="M104.663 33.6274L69.9277 208.654L200.49 234.636L235.225 59.6098L104.663 33.6274Z" fill="white"/>
<path d="M205.21 62.0339L112.552 43.5945L112.273 44.9999L204.931 63.4394L205.21 62.0339Z" fill="#E0E0E0"/>
<path d="M178.845 194.888L86.1865 176.448L85.9076 177.854L178.566 196.293L178.845 194.888Z" fill="#E0E0E0"/>
<path d="M156.179 198.777L84.5796 184.529L84.3007 185.934L155.9 200.183L156.179 198.777Z" fill="#E0E0E0"/>
<path opacity="0.7" d="M109.648 197.922L82.9758 192.615L82.6969 194.02L109.369 199.328L109.648 197.922Z" fill="#4645D6"/>
<path opacity="0.7" d="M157.272 60.8984L110.945 51.679L110.666 53.0844L156.993 62.3038L157.272 60.8984Z" fill="#4645D6"/>
<path d="M192.875 76.3848L109.344 59.7617L109.065 61.1671L192.596 77.7902L192.875 76.3848Z" fill="#E0E0E0"/>
<path opacity="0.7" d="M128.093 71.8977L107.738 67.8469L107.459 69.2524L127.814 73.3032L128.093 71.8977Z" fill="#3AD29F"/>
<path d="M198.794 94.3698L106.135 75.9304L105.857 77.3359L198.515 95.7753L198.794 94.3698Z" fill="#E0E0E0"/>
<g opacity="0.5">
<path opacity="0.5" d="M114.299 110.076L104.813 157.873L187.993 174.426L197.479 126.629L114.299 110.076Z" fill="url(#paint6_linear)"/>
</g>
<path d="M196.898 126.875L114.771 110.531L105.494 157.275L187.622 173.619L196.898 126.875Z" fill="white"/>
<path d="M197.189 102.456L104.531 84.017L104.252 85.4224L196.911 103.862L197.189 102.456Z" fill="#E0E0E0"/>
<path d="M132.295 120.595L122.116 118.569L115.35 152.66L125.529 154.686L132.295 120.595Z" fill="#4645D6"/>
<path d="M148.313 135.475L138.134 133.449L133.6 156.294L143.779 158.32L148.313 135.475Z" fill="#3AD29F"/>
<path d="M164.474 149.651L154.294 147.625L151.853 159.925L162.033 161.95L164.474 149.651Z" fill="#F55F44"/>
<path d="M185.235 140.629L175.056 138.604L170.104 163.559L180.283 165.584L185.235 140.629Z" fill="#FDD835"/>
<path d="M214.934 107.396C210.519 102.797 205.23 99.1299 199.378 96.6089C193.527 94.0879 187.23 92.7645 180.86 92.7164C174.49 92.6684 168.175 93.8968 162.286 96.3292C156.397 98.7617 151.054 102.349 146.57 106.88C128.492 125.131 128.185 154.848 145.868 173.485C153.637 181.673 164.048 186.844 175.259 188.083C186.469 189.322 197.756 186.548 207.12 180.254L241.65 216.218C242.078 216.663 242.664 216.92 243.281 216.932C243.897 216.944 244.493 216.71 244.938 216.282L253.542 207.998C253.986 207.57 254.243 206.982 254.255 206.365C254.267 205.748 254.034 205.151 253.606 204.705L219.086 168.744C225.705 159.661 228.917 148.533 228.157 137.314C227.398 126.095 222.716 115.502 214.934 107.396ZM204.179 165.219C199.308 169.908 193.157 173.046 186.505 174.235C179.853 175.424 172.999 174.612 166.808 171.9C160.617 169.188 155.369 164.699 151.726 159C148.083 153.301 146.21 146.648 146.342 139.883C146.475 133.118 148.608 126.544 152.472 120.993C156.336 115.442 161.757 111.163 168.049 108.697C174.341 106.23 181.223 105.688 187.823 107.138C194.423 108.588 200.445 111.966 205.129 116.843C208.238 120.082 210.681 123.902 212.316 128.086C213.951 132.27 214.748 136.736 214.659 141.228C214.571 145.72 213.6 150.151 211.802 154.267C210.004 158.384 207.413 162.105 204.179 165.219Z" fill="url(#paint7_linear)"/>
<path d="M155.195 131.037C151.353 131.037 151.347 137.018 155.195 137.018C159.044 137.018 159.044 131.037 155.195 131.037Z" fill="url(#paint8_linear)"/>
<path d="M181.979 111.881C171.637 111.648 162.227 116.843 157.224 124.686C155.591 127.245 160.227 129.506 161.851 126.959C165.993 120.467 173.865 116.343 182.38 116.558C191.303 116.782 199.423 121.893 203.722 128.988C205.352 131.678 209.626 129.233 208.012 126.557C202.784 117.966 192.66 112.136 181.979 111.881Z" fill="url(#paint9_linear)"/>
<path d="M218.681 105.579C214.266 100.981 208.977 97.313 203.125 94.792C197.274 92.271 190.977 90.9476 184.607 90.8995C178.237 90.8515 171.922 92.0799 166.033 94.5123C160.144 96.9448 154.801 100.532 150.317 105.063C132.239 123.314 131.932 153.031 149.615 171.668C157.384 179.856 167.796 185.026 179.006 186.265C190.217 187.503 201.503 184.729 210.867 178.434L245.394 214.401C245.822 214.846 246.408 215.103 247.025 215.115C247.641 215.127 248.237 214.893 248.682 214.466L257.286 206.181C257.73 205.753 257.987 205.166 257.999 204.548C258.011 203.931 257.778 203.334 257.35 202.889L222.821 166.924C229.44 157.843 232.654 146.716 231.897 135.497C231.14 124.279 226.461 113.686 218.681 105.579ZM207.926 163.377C203.055 168.067 196.904 171.205 190.252 172.394C183.6 173.583 176.746 172.77 170.555 170.058C164.364 167.346 159.116 162.857 155.473 157.158C151.83 151.459 149.957 144.807 150.089 138.042C150.222 131.276 152.355 124.703 156.219 119.152C160.083 113.6 165.504 109.321 171.796 106.855C178.088 104.389 184.97 103.847 191.57 105.297C198.17 106.747 204.192 110.124 208.876 115.002C211.985 118.241 214.428 122.061 216.063 126.245C217.698 130.429 218.495 134.895 218.406 139.387C218.318 143.879 217.347 148.31 215.549 152.426C213.751 156.542 211.16 160.264 207.926 163.377Z" fill="#4645D6"/>
<path d="M158.943 129.218C155.1 129.218 155.094 135.198 158.943 135.198C162.791 135.198 162.791 129.218 158.943 129.218Z" fill="#4645D6"/>
<path d="M185.726 110.065C175.385 109.831 165.975 115.026 160.971 122.869C159.338 125.428 163.974 127.689 165.598 125.142C169.741 118.65 177.612 114.526 186.128 114.741C195.05 114.965 203.17 120.077 207.469 127.171C209.099 129.862 213.374 127.416 211.759 124.74C206.522 116.125 196.411 110.295 185.726 110.065Z" fill="#4645D6"/>
<path d="M38.2863 203.711H37.2139V209.801H38.2863V203.711Z" fill="#47E6B1"/>
<path d="M40.793 207.292V206.218H34.7107V207.292H40.793Z" fill="#47E6B1"/>
<path d="M175.229 2.4391C174.932 2.31006 174.694 2.07642 174.559 1.78271C174.424 1.48901 174.402 1.15579 174.496 0.846621C174.511 0.798796 174.52 0.749355 174.524 0.69934C174.534 0.557144 174.497 0.415623 174.42 0.295959C174.342 0.176294 174.228 0.0849233 174.095 0.0355225C173.961 -0.0138782 173.815 -0.0186522 173.679 0.0219157C173.543 0.0624835 173.423 0.146211 173.338 0.260566C173.308 0.300481 173.284 0.343737 173.264 0.389437C173.136 0.685927 172.902 0.924551 172.609 1.0598C172.316 1.19505 171.983 1.21747 171.674 1.12277C171.626 1.10776 171.577 1.09849 171.527 1.09516C171.384 1.08481 171.241 1.12152 171.121 1.19971C171.001 1.27789 170.909 1.39328 170.86 1.52833C170.811 1.66339 170.808 1.81074 170.85 1.94799C170.893 2.08523 170.979 2.20488 171.095 2.28875C171.135 2.31827 171.178 2.34299 171.224 2.36239C171.52 2.49142 171.758 2.72507 171.893 3.01877C172.028 3.31247 172.051 3.64569 171.956 3.95486C171.941 4.00269 171.932 4.05213 171.928 4.10214C171.917 4.24626 171.953 4.39016 172.031 4.51171C172.11 4.63325 172.225 4.72571 172.361 4.77487C172.497 4.82402 172.645 4.82715 172.783 4.78377C172.921 4.7404 173.04 4.65291 173.123 4.53478C173.153 4.49486 173.178 4.45161 173.197 4.40591C173.326 4.10942 173.559 3.8708 173.852 3.73554C174.146 3.60029 174.479 3.57788 174.787 3.67257C174.835 3.68759 174.884 3.69686 174.934 3.70019C175.076 3.70991 175.218 3.67333 175.337 3.5959C175.457 3.51847 175.548 3.40438 175.597 3.27068C175.647 3.13699 175.651 2.99089 175.611 2.85426C175.57 2.71763 175.487 2.59781 175.373 2.51274C175.328 2.48211 175.28 2.45736 175.229 2.4391Z" fill="#4D8AF0"/>
<path d="M42.1135 47.5907C41.8174 47.4617 41.5791 47.228 41.444 46.9343C41.309 46.6406 41.2866 46.3074 41.3812 45.9982C41.3961 45.9504 41.4054 45.901 41.4087 45.8509C41.4184 45.7088 41.3819 45.5672 41.3046 45.4476C41.2273 45.3279 41.1133 45.2365 40.9798 45.1871C40.8463 45.1377 40.7004 45.133 40.564 45.1735C40.4275 45.2141 40.3079 45.2978 40.2229 45.4122C40.1934 45.4521 40.1687 45.4953 40.1494 45.541C40.0205 45.8375 39.7872 46.0762 39.4939 46.2114C39.2006 46.3467 38.8678 46.3691 38.5591 46.2744C38.5113 46.2594 38.4619 46.2501 38.412 46.2468C38.27 46.237 38.1287 46.2736 38.0092 46.3511C37.8897 46.4285 37.7984 46.5426 37.7491 46.6763C37.6998 46.81 37.695 46.9561 37.7355 47.0927C37.776 47.2293 37.8596 47.3491 37.9738 47.4342C38.0137 47.4637 38.0569 47.4885 38.1025 47.5079C38.3986 47.6369 38.6369 47.8705 38.772 48.1642C38.907 48.4579 38.9294 48.7912 38.8348 49.1003C38.8199 49.1481 38.8106 49.1976 38.8073 49.2476C38.7976 49.3898 38.8341 49.5313 38.9114 49.651C38.9887 49.7707 39.1027 49.862 39.2362 49.9114C39.3697 49.9608 39.5156 49.9656 39.652 49.925C39.7885 49.8845 39.9081 49.8007 39.9931 49.6864C40.0226 49.6465 40.0473 49.6032 40.0666 49.5575C40.1955 49.261 40.4288 49.0224 40.7221 48.8871C41.0154 48.7519 41.3482 48.7295 41.6569 48.8242C41.7047 48.8392 41.7541 48.8485 41.804 48.8518C41.946 48.8615 42.0873 48.8249 42.2068 48.7475C42.3263 48.6701 42.4176 48.556 42.4669 48.4223C42.5163 48.2886 42.521 48.1425 42.4805 48.0059C42.44 47.8692 42.3564 47.7494 42.2422 47.6643C42.2023 47.6348 42.1591 47.6101 42.1135 47.5907Z" fill="#FDD835"/>
<path d="M231.41 233.918C231.114 233.789 230.875 233.556 230.74 233.262C230.605 232.968 230.583 232.635 230.677 232.326C230.692 232.278 230.702 232.229 230.705 232.179C230.715 232.037 230.678 231.895 230.601 231.775C230.523 231.656 230.409 231.564 230.276 231.515C230.142 231.465 229.997 231.461 229.86 231.501C229.724 231.542 229.604 231.626 229.519 231.74C229.49 231.78 229.465 231.823 229.446 231.869C229.317 232.165 229.083 232.404 228.79 232.539C228.497 232.674 228.164 232.697 227.855 232.602C227.807 232.587 227.758 232.578 227.708 232.575C227.566 232.565 227.425 232.601 227.305 232.679C227.186 232.756 227.095 232.87 227.045 233.004C226.996 233.138 226.991 233.284 227.032 233.42C227.072 233.557 227.156 233.677 227.27 233.762C227.31 233.792 227.353 233.816 227.399 233.836C227.695 233.965 227.933 234.198 228.068 234.492C228.203 234.786 228.226 235.119 228.131 235.428C228.116 235.476 228.107 235.525 228.103 235.575C228.094 235.718 228.13 235.859 228.208 235.979C228.285 236.098 228.399 236.19 228.532 236.239C228.666 236.289 228.812 236.293 228.948 236.253C229.085 236.212 229.204 236.129 229.289 236.014C229.319 235.974 229.343 235.931 229.363 235.885C229.492 235.589 229.725 235.35 230.018 235.215C230.312 235.08 230.644 235.057 230.953 235.152C231.001 235.167 231.05 235.176 231.1 235.18C231.242 235.189 231.383 235.153 231.503 235.075C231.622 234.998 231.714 234.884 231.763 234.75C231.812 234.616 231.817 234.47 231.777 234.334C231.736 234.197 231.653 234.077 231.538 233.992C231.498 233.963 231.455 233.938 231.41 233.918Z" fill="#FDD835"/>
<path d="M98.4045 25.2645C99.5908 25.2645 100.552 24.3015 100.552 23.1136C100.552 21.9256 99.5908 20.9626 98.4045 20.9626C97.2183 20.9626 96.2566 21.9256 96.2566 23.1136C96.2566 24.3015 97.2183 25.2645 98.4045 25.2645Z" fill="#F55F44"/>
<path d="M252.273 52.1368C253.459 52.1368 254.421 51.1738 254.421 49.9859C254.421 48.798 253.459 47.835 252.273 47.835C251.087 47.835 250.125 48.798 250.125 49.9859C250.125 51.1738 251.087 52.1368 252.273 52.1368Z" fill="#F55F44"/>
<path d="M240.108 116.278C241.295 116.278 242.256 115.315 242.256 114.127C242.256 112.939 241.295 111.976 240.108 111.976C238.922 111.976 237.96 112.939 237.96 114.127C237.96 115.315 238.922 116.278 240.108 116.278Z" fill="#4D8AF0"/>
<path opacity="0.5" d="M2.14796 10.9298C3.33424 10.9298 4.29592 9.96676 4.29592 8.77884C4.29592 7.59093 3.33424 6.62793 2.14796 6.62793C0.961674 6.62793 0 7.59093 0 8.77884C0 9.96676 0.961674 10.9298 2.14796 10.9298Z" fill="#47E6B1"/>
</g>
<defs>
<linearGradient id="paint0_linear" x1="115.938" y1="224.852" x2="115.938" y2="39.9529" gradientUnits="userSpaceOnUse">
<stop stop-color="#808080" stop-opacity="0.25"/>
<stop offset="0.54" stop-color="#808080" stop-opacity="0.12"/>
<stop offset="1" stop-color="#808080" stop-opacity="0.1"/>
</linearGradient>
<linearGradient id="paint1_linear" x1="13415.3" y1="20316.8" x2="13415.3" y2="12347.5" gradientUnits="userSpaceOnUse">
<stop stop-color="#808080" stop-opacity="0.25"/>
<stop offset="0.54" stop-color="#808080" stop-opacity="0.12"/>
<stop offset="1" stop-color="#808080" stop-opacity="0.1"/>
</linearGradient>
<linearGradient id="paint2_linear" x1="12322.4" y1="11218" x2="12322.4" y2="8123.23" gradientUnits="userSpaceOnUse">
<stop stop-color="#808080" stop-opacity="0.25"/>
<stop offset="0.54" stop-color="#808080" stop-opacity="0.12"/>
<stop offset="1" stop-color="#808080" stop-opacity="0.1"/>
</linearGradient>
<linearGradient id="paint3_linear" x1="13415.3" y1="30602" x2="13415.3" y2="22632.7" gradientUnits="userSpaceOnUse">
<stop stop-color="#808080" stop-opacity="0.25"/>
<stop offset="0.54" stop-color="#808080" stop-opacity="0.12"/>
<stop offset="1" stop-color="#808080" stop-opacity="0.1"/>
</linearGradient>
<linearGradient id="paint4_linear" x1="12322.4" y1="17651.3" x2="12322.4" y2="14556.5" gradientUnits="userSpaceOnUse">
<stop stop-color="#808080" stop-opacity="0.25"/>
<stop offset="0.54" stop-color="#808080" stop-opacity="0.12"/>
<stop offset="1" stop-color="#808080" stop-opacity="0.1"/>
</linearGradient>
<linearGradient id="paint5_linear" x1="104294" y1="128241" x2="120477" y2="46924.3" gradientUnits="userSpaceOnUse">
<stop stop-color="#808080" stop-opacity="0.25"/>
<stop offset="0.54" stop-color="#808080" stop-opacity="0.12"/>
<stop offset="1" stop-color="#808080" stop-opacity="0.1"/>
</linearGradient>
<linearGradient id="paint6_linear" x1="23579" y1="53994" x2="26211.3" y2="40766.7" gradientUnits="userSpaceOnUse">
<stop stop-color="#808080" stop-opacity="0.25"/>
<stop offset="0.54" stop-color="#808080" stop-opacity="0.12"/>
<stop offset="1" stop-color="#808080" stop-opacity="0.1"/>
</linearGradient>
<linearGradient id="paint7_linear" x1="193.531" y1="216.933" x2="193.531" y2="92.7168" gradientUnits="userSpaceOnUse">
<stop stop-color="#B3B3B3" stop-opacity="0.25"/>
<stop offset="0.54" stop-color="#B3B3B3" stop-opacity="0.1"/>
<stop offset="1" stop-color="#B3B3B3" stop-opacity="0.05"/>
</linearGradient>
<linearGradient id="paint8_linear" x1="155.195" y1="137.014" x2="155.195" y2="131.037" gradientUnits="userSpaceOnUse">
<stop stop-opacity="0.12"/>
<stop offset="0.55" stop-opacity="0.09"/>
<stop offset="1" stop-opacity="0.02"/>
</linearGradient>
<linearGradient id="paint9_linear" x1="40060.7" y1="8973.52" x2="40060.7" y2="7884.3" gradientUnits="userSpaceOnUse">
<stop stop-opacity="0.12"/>
<stop offset="0.55" stop-opacity="0.09"/>
<stop offset="1" stop-opacity="0.02"/>
</linearGradient>
<clipPath id="clip0">
<rect width="258" height="239" fill="white"/>
</clipPath>
</defs>
</svg>
