<svg width="268" height="259" viewBox="0 0 268 259" fill="none" xmlns="http://www.w3.org/2000/svg">
<g clip-path="url(#clip0)">
<path d="M39.3444 25.3783C40.3421 25.3783 41.1509 24.5711 41.1509 23.5753C41.1509 22.5795 40.3421 21.7722 39.3444 21.7722C38.3467 21.7722 37.5378 22.5795 37.5378 23.5753C37.5378 24.5711 38.3467 25.3783 39.3444 25.3783Z" fill="white"/>
<path d="M46.1188 25.3783C47.1165 25.3783 47.9253 24.5711 47.9253 23.5753C47.9253 22.5795 47.1165 21.7722 46.1188 21.7722C45.1211 21.7722 44.3123 22.5795 44.3123 23.5753C44.3123 24.5711 45.1211 25.3783 46.1188 25.3783Z" fill="white"/>
<path d="M52.8935 25.3783C53.8912 25.3783 54.7 24.5711 54.7 23.5753C54.7 22.5795 53.8912 21.7722 52.8935 21.7722C51.8957 21.7722 51.0869 22.5795 51.0869 23.5753C51.0869 24.5711 51.8957 25.3783 52.8935 25.3783Z" fill="white"/>
<path d="M262 27.7961H34.9922V29.0665H262V27.7961Z" fill="white"/>
<path d="M262.206 0.791016H1.24292V239.369H262.206V0.791016Z" fill="#E6E6E6"/>
<path d="M262.082 0.668213H1.11963V11.7325H262.082V0.668213Z" fill="#4645D6"/>
<path d="M254.979 20.666H8.92065V84.265H254.979V20.666Z" fill="white"/>
<path d="M255.102 165.567H9.0437V229.166H255.102V165.567Z" fill="white"/>
<path d="M225.147 34.7192H91.9966V40.6611H225.147V34.7192Z" fill="#E6E6E6"/>
<path d="M139.459 49.5127H91.9966V55.4546H139.459V49.5127Z" fill="#E6E6E6"/>
<path d="M186.593 64.3469H91.9966V70.2888H186.593V64.3469Z" fill="#E6E6E6"/>
<path d="M83.0487 52.4871C83.0487 56.7898 81.817 61.0106 79.4356 64.6168C78.9429 65.3954 78.4092 66.092 77.7933 66.7886C76.3974 68.4278 74.7961 69.8211 73.0306 71.0094C72.5379 71.3373 72.0452 71.6241 71.5525 71.911C68.8838 73.3862 65.9276 74.2877 62.9304 74.5746C62.2324 74.6565 61.5345 74.6565 60.8365 74.6565C58.9068 74.6565 56.9771 74.4107 55.0884 73.9189C54.0209 73.6321 52.9945 73.2633 51.968 72.8535C51.4343 72.6486 50.9416 72.4027 50.4489 72.1159C49.2582 71.5012 48.1497 70.7636 47.0822 69.944C46.5895 69.5752 46.1378 69.1654 45.6862 68.7556C36.6946 60.4369 36.1608 46.3812 44.4955 37.4069C52.8302 28.4325 66.913 27.8588 75.9047 36.2185C80.4621 40.3983 83.0487 46.2993 83.0487 52.4871Z" fill="#E6E6E6"/>
<path d="M55.4167 54.4949C55.4167 54.4949 57.4286 60.1089 55.8684 63.2643C54.3082 66.4197 58.3318 69.9848 58.3318 69.9848C58.3318 69.9848 68.9247 64.6166 67.5698 61.912C66.2149 59.2074 63.9567 55.6423 64.4084 53.3884L55.4167 54.4949Z" fill="#FFB8B8"/>
<path d="M59.3584 56.585C63.3267 56.585 66.5435 53.3743 66.5435 49.4137C66.5435 45.4531 63.3267 42.2424 59.3584 42.2424C55.3902 42.2424 52.1733 45.4531 52.1733 49.4137C52.1733 53.3743 55.3902 56.585 59.3584 56.585Z" fill="#FFB8B8"/>
<path d="M55.0884 73.919C54.0209 73.6321 52.9945 73.2633 51.968 72.8535L52.1733 67.4034L54.1851 62.8957C54.6368 63.2645 55.1295 63.5514 55.6222 63.8382C55.7453 63.9202 55.8685 63.9611 55.9917 64.0431C57.8803 64.9446 61.0007 65.7642 63.9979 63.5104C65.1065 62.6498 66.0508 61.5844 66.7488 60.396L72.3737 63.5514L72.6611 66.9936L72.9895 71.0095C72.4969 71.3373 72.0042 71.6242 71.5115 71.911C68.8427 73.3862 65.8866 74.2878 62.8894 74.5746C62.1914 74.6566 61.4934 74.6566 60.7954 74.6566C58.8657 74.6566 56.936 74.4107 55.0884 73.919Z" fill="#575A89"/>
<path d="M56.4433 59.5354L56.1559 62.4859L55.9917 64.0431L55.7864 66.3379L55.0473 73.9189C53.9798 73.6321 52.9534 73.2633 51.927 72.8535C51.3932 72.6486 50.9005 72.4027 50.4078 72.1159C49.2171 71.5012 48.1086 70.7636 47.0411 69.944L46.261 66.2559L46.302 66.2149L56.4433 59.5354Z" fill="#575A89"/>
<path d="M71.5525 71.911C68.8838 73.3863 65.9276 74.2878 62.9304 74.5746C63.0947 71.8291 63.341 69.2064 63.5873 66.8706C63.7105 65.6823 63.8747 64.5349 64.039 63.5104C64.5317 60.2321 65.0654 57.9783 65.4349 57.6914L67.9395 59.3306L78.0397 62.8957L77.8344 66.7887C76.4384 68.4278 74.8372 69.8211 73.0717 71.0095C72.579 71.3373 72.0452 71.6242 71.5525 71.911Z" fill="#575A89"/>
<path d="M47.1233 69.9438C46.6306 69.575 46.1789 69.1652 45.7273 68.7554L46.0968 66.2557L46.3842 66.2147L47.657 66.0508L50.4489 72.1156C49.2993 71.5009 48.1497 70.7633 47.1233 69.9438Z" fill="#575A89"/>
<path d="M79.4356 64.6165C78.9429 65.3951 78.4091 66.0917 77.7933 66.7884C76.3973 68.4275 74.7961 69.8208 73.0306 71.0092C72.5379 71.337 72.0452 71.6239 71.5525 71.9107L71.3062 70.7633L72.7432 67.0342L74.4676 62.4856L78.0807 62.9364C78.5323 63.4281 78.984 64.0018 79.4356 64.6165Z" fill="#575A89"/>
<path d="M66.215 42.9391C65.1065 41.177 63.4231 39.8657 61.4523 39.292L59.9743 40.4394L60.5491 39.0871C60.0564 39.0051 59.6047 39.0051 59.112 39.0051L57.7982 40.6853L58.3319 39.0461C56.0327 39.333 53.9388 40.5623 52.5839 42.4473C50.9005 44.8651 50.6131 48.2253 52.2554 50.6431C52.707 49.2498 53.2408 47.9385 53.6924 46.5862C54.0619 46.6272 54.3904 46.6272 54.7599 46.5862L55.2937 45.3159L55.4579 46.5452C57.1823 46.3813 59.6868 46.0535 61.3292 45.7666L61.206 44.8241L62.1503 45.6027C62.643 45.4798 62.9304 45.3978 62.9304 45.3159C64.1211 47.2419 65.3118 48.4712 66.5435 50.4382C66.9541 47.6926 67.7752 45.4388 66.215 42.9391Z" fill="#2F2E41"/>
<path d="M65.8455 50.1921C66.1176 50.1921 66.3382 49.7518 66.3382 49.2086C66.3382 48.6654 66.1176 48.2251 65.8455 48.2251C65.5734 48.2251 65.3528 48.6654 65.3528 49.2086C65.3528 49.7518 65.5734 50.1921 65.8455 50.1921Z" fill="#FFB8B8"/>
<path d="M254.979 93.1982H8.92065V156.797H254.979V93.1982Z" fill="white"/>
<path d="M225.147 107.251H91.9966V113.193H225.147V107.251Z" fill="#E6E6E6"/>
<path d="M139.459 122.086H91.9966V128.028H139.459V122.086Z" fill="#E6E6E6"/>
<path d="M186.593 136.879H91.9966V142.821H186.593V136.879Z" fill="#E6E6E6"/>
<path d="M83.0487 125.02C83.0487 129.322 81.817 133.543 79.4356 137.149C78.9429 137.928 78.4092 138.624 77.7933 139.321C76.3974 140.96 74.7961 142.354 73.0306 143.542C72.5379 143.87 72.0452 144.157 71.5526 144.443C68.8838 145.919 65.9277 146.82 62.9304 147.107C62.2325 147.189 61.5345 147.189 60.8365 147.189C58.9068 147.189 56.9771 146.943 55.0884 146.451C54.0209 146.165 52.9945 145.796 51.968 145.386C51.4343 145.181 50.9416 144.935 50.4489 144.648C49.2582 144.034 48.1497 143.296 47.0822 142.476C46.5895 142.108 46.1378 141.698 45.6862 141.288C36.6946 132.969 36.1198 118.914 44.4955 109.939C52.8713 100.965 66.913 100.391 75.9047 108.751C80.4621 112.931 83.0487 118.832 83.0487 125.02Z" fill="#E6E6E6"/>
<path d="M55.417 127.027C55.417 127.027 57.4288 132.641 55.8686 135.797C54.3084 138.952 58.3321 142.517 58.3321 142.517C58.3321 142.517 68.925 137.149 67.5701 134.444C66.2152 131.74 63.957 128.175 64.4086 125.921L55.417 127.027Z" fill="#FFB8B8"/>
<path d="M59.3584 129.158C63.3267 129.158 66.5435 125.948 66.5435 121.987C66.5435 118.026 63.3267 114.816 59.3584 114.816C55.3902 114.816 52.1733 118.026 52.1733 121.987C52.1733 125.948 55.3902 129.158 59.3584 129.158Z" fill="#FFB8B8"/>
<path d="M55.0884 146.451C54.0209 146.165 52.9945 145.796 51.968 145.386L52.1733 139.936L54.1851 135.428C54.6368 135.797 55.1295 136.084 55.6222 136.371C55.7453 136.453 55.8685 136.494 55.9917 136.576C57.8803 137.477 61.0007 138.297 63.9979 136.043C65.1065 135.182 66.0508 134.117 66.7488 132.928L72.3737 136.084L72.6611 139.526L72.9895 143.542C72.4969 143.87 72.0042 144.157 71.5115 144.443C68.8427 145.919 65.8866 146.82 62.8894 147.107C62.1914 147.189 61.4934 147.189 60.7954 147.189C58.8657 147.23 56.936 146.984 55.0884 146.451Z" fill="#575A89"/>
<path d="M56.4433 132.109L56.1559 135.059L55.9917 136.616L55.7864 138.911L55.0473 146.492C53.9798 146.205 52.9534 145.837 51.927 145.427C51.3932 145.222 50.9005 144.976 50.4078 144.689C49.2171 144.074 48.1086 143.337 47.0411 142.517L46.261 138.829L46.302 138.788L56.4433 132.109Z" fill="#575A89"/>
<path d="M71.5525 144.485C68.8838 145.96 65.9276 146.861 62.9304 147.148C63.0947 144.403 63.341 141.78 63.5873 139.444C63.7105 138.256 63.8747 137.108 64.039 136.084C64.5317 132.806 65.0654 130.552 65.4349 130.265L67.9395 131.904L78.0807 135.51L77.8754 139.403C76.4795 141.042 74.8782 142.436 73.1127 143.624C72.579 143.87 72.0452 144.198 71.5525 144.485Z" fill="#575A89"/>
<path d="M47.1233 142.517C46.6306 142.149 46.1789 141.739 45.7273 141.329L46.0968 138.829L46.3842 138.788L47.657 138.625L50.4489 144.689C49.2993 144.034 48.1497 143.337 47.1233 142.517Z" fill="#575A89"/>
<path d="M79.4356 137.149C78.9429 137.928 78.4091 138.624 77.7933 139.321C76.3973 140.96 74.7961 142.353 73.0306 143.542C72.5379 143.869 72.0452 144.156 71.5525 144.443L71.3062 143.296L72.7432 139.567L74.4676 135.018L78.0807 135.469C78.5323 136.002 78.9839 136.575 79.4356 137.149Z" fill="#575A89"/>
<path d="M66.215 115.472C65.1065 113.71 63.4231 112.398 61.4523 111.824L59.9742 113.013L60.5491 111.661C60.0564 111.579 59.6047 111.579 59.112 111.579L57.7982 113.259L58.3319 111.62C56.0327 111.906 53.9388 113.136 52.5839 115.021C50.9005 117.439 50.6131 120.799 52.2554 123.217C52.707 121.823 53.2408 120.512 53.6924 119.16C54.0619 119.201 54.3904 119.201 54.7599 119.16L55.2937 117.889L55.4579 119.119C57.1823 118.955 59.6868 118.627 61.3292 118.34L61.1649 117.398L62.1093 118.176C62.6019 118.053 62.8893 117.971 62.8893 117.889C64.08 119.815 65.2707 121.045 66.5024 123.012C66.9541 120.225 67.7752 117.971 66.215 115.472Z" fill="#2F2E41"/>
<path d="M65.8455 122.725C66.1176 122.725 66.3382 122.284 66.3382 121.741C66.3382 121.198 66.1176 120.758 65.8455 120.758C65.5734 120.758 65.3528 121.198 65.3528 121.741C65.3528 122.284 65.5734 122.725 65.8455 122.725Z" fill="#FFB8B8"/>
<path d="M81.9623 197.038C81.9623 201.341 80.7305 205.562 78.3492 209.168C77.8565 209.947 77.3227 210.643 76.7069 211.34C75.3109 212.979 73.7097 214.413 71.9442 215.561C71.4515 215.888 70.9588 216.175 70.4661 216.462C67.7974 217.937 64.8412 218.839 61.8029 219.126C61.105 219.208 60.407 219.208 59.709 219.208C57.7793 219.208 55.8496 218.962 53.9609 218.47C52.8934 218.183 51.867 217.814 50.8405 217.405C50.3068 217.2 49.8141 216.954 49.3214 216.667C48.1307 216.052 47.0222 215.315 45.9547 214.495C45.462 214.126 45.0103 213.717 44.5587 213.307C35.526 204.988 34.9923 190.932 43.368 181.917C51.7027 172.902 65.7855 172.369 74.8182 180.729C79.3756 184.99 81.9623 190.891 81.9623 197.038Z" fill="#4645D6"/>
<path d="M61.0828 186.689H58.373V207.424H61.0828V186.689Z" fill="white"/>
<path d="M70.1155 195.704H49.3403V198.409H70.1155V195.704Z" fill="white"/>
<path d="M221.809 179.655H88.6584V185.597H221.809V179.655Z" fill="#E6E6E6"/>
<path d="M136.121 194.448H88.6584V200.39H136.121V194.448Z" fill="#E6E6E6"/>
<path d="M183.255 209.283H88.6584V215.225H183.255V209.283Z" fill="#E6E6E6"/>
<path d="M18.364 8.00327C19.3843 8.00327 20.2115 7.17767 20.2115 6.15923C20.2115 5.14079 19.3843 4.31519 18.364 4.31519C17.3436 4.31519 16.5164 5.14079 16.5164 6.15923C16.5164 7.17767 17.3436 8.00327 18.364 8.00327Z" fill="white"/>
<path d="M25.3437 8.00327C26.3641 8.00327 27.1913 7.17767 27.1913 6.15923C27.1913 5.14079 26.3641 4.31519 25.3437 4.31519C24.3233 4.31519 23.4961 5.14079 23.4961 6.15923C23.4961 7.17767 24.3233 8.00327 25.3437 8.00327Z" fill="white"/>
<path d="M11.384 8.00327C12.4044 8.00327 13.2316 7.17767 13.2316 6.15923C13.2316 5.14079 12.4044 4.31519 11.384 4.31519C10.3636 4.31519 9.53638 5.14079 9.53638 6.15923C9.53638 7.17767 10.3636 8.00327 11.384 8.00327Z" fill="white"/>
</g>
<defs>
<clipPath id="clip0">
<rect x="0.75" y="0.25" width="266.875" height="258.125" fill="white"/>
</clipPath>
</defs>
</svg>
