<svg width="254" height="254" viewBox="0 0 254 254" fill="none" xmlns="http://www.w3.org/2000/svg">
<rect width="254" height="254" fill="#E9E9E9"/>
<rect x="39" y="42" width="176" height="171" stroke="white" stroke-width="4"/>
<rect x="91" y="109" width="72" height="36.72" rx="5" fill="#4645D6"/>
<path d="M118.373 129.44V133.92H116.229V129.44L112.013 122.352H113.909C114.096 122.352 114.243 122.397 114.349 122.488C114.461 122.579 114.555 122.693 114.629 122.832L116.741 126.696C116.864 126.925 116.971 127.141 117.061 127.344C117.157 127.547 117.243 127.749 117.317 127.952C117.387 127.749 117.467 127.547 117.557 127.344C117.648 127.141 117.752 126.925 117.869 126.696L119.973 122.832C120.032 122.715 120.12 122.605 120.237 122.504C120.355 122.403 120.504 122.352 120.685 122.352H122.589L118.373 129.44ZM127.54 128.168C127.935 128.168 128.279 128.12 128.572 128.024C128.866 127.923 129.108 127.781 129.3 127.6C129.498 127.413 129.644 127.189 129.74 126.928C129.836 126.661 129.884 126.365 129.884 126.04C129.884 125.731 129.836 125.451 129.74 125.2C129.644 124.949 129.5 124.736 129.308 124.56C129.116 124.384 128.874 124.251 128.58 124.16C128.287 124.064 127.94 124.016 127.54 124.016H125.932V128.168H127.54ZM127.54 122.352C128.314 122.352 128.983 122.443 129.548 122.624C130.114 122.805 130.58 123.059 130.948 123.384C131.316 123.709 131.588 124.099 131.764 124.552C131.946 125.005 132.036 125.501 132.036 126.04C132.036 126.6 131.943 127.115 131.756 127.584C131.57 128.048 131.29 128.448 130.916 128.784C130.543 129.12 130.074 129.381 129.508 129.568C128.948 129.755 128.292 129.848 127.54 129.848H125.932V133.92H123.78V122.352H127.54ZM135.846 124.064V127.272H139.894V128.928H135.846V132.2H140.982V133.92H133.686V122.352H140.982V124.064H135.846Z" fill="white"/>
<rect x="15" y="19" width="50" height="50" fill="white"/>
<path d="M46.5 37H32.5C30.575 37 29 38.5 29 40.3333V48.6667C29 50.5 30.575 52 32.5 52H46.5C48.425 52 50 50.5 50 48.6667V40.3333C50 38.5 48.425 37 46.5 37ZM47.9 41.8333L40.9875 46.25C40.55 46.5 40.025 46.6667 39.5 46.6667C38.975 46.6667 38.45 46.5 38.0125 46.25L31.1 41.8333C30.75 41.5833 30.6625 41.0833 30.925 40.6667C31.1875 40.3333 31.7125 40.25 32.15 40.5L39.0625 44.9167C39.325 45.0833 39.7625 45.0833 40.025 44.9167L46.9375 40.5C47.375 40.25 47.9 40.3333 48.1625 40.75C48.3375 41.0833 48.25 41.5833 47.9 41.8333Z" fill="#4645D6"/>
<rect x="15" y="102" width="50" height="50" fill="white"/>
<path d="M37.8876 129.112C39.9658 131.191 42.3725 133.177 43.3235 132.226C44.6856 130.864 45.5253 129.678 48.5276 132.091C51.53 134.505 49.224 136.113 47.9047 137.433C46.3821 138.955 40.7066 137.513 35.0967 131.904C29.4876 126.293 28.0444 120.618 29.5679 119.095C30.8875 117.775 32.4959 115.47 34.9088 118.473C37.3222 121.474 36.1365 122.314 34.7741 123.676C33.8233 124.628 35.8094 127.034 37.8876 129.112Z" fill="#4645D6"/>
<rect x="15" y="185" width="50" height="50" fill="white"/>
<path d="M49.7266 209.242C49.3622 208.88 48.7714 208.88 48.4072 209.242L43.0612 214.565L39.8305 217.781H39.8303C38.0083 219.595 35.0548 219.595 33.2328 217.781C31.4108 215.968 31.4108 213.027 33.2328 211.213C33.2333 211.213 33.234 211.212 33.2344 211.211L36.4639 207.996L39.1751 205.297L41.8095 202.674C42.903 201.585 44.6751 201.585 45.7682 202.674C46.8614 203.762 46.8614 205.527 45.7682 206.615L43.1335 209.238L39.0554 213.298L37.1912 215.154C36.8269 215.517 36.236 215.517 35.8717 215.154C35.5073 214.792 35.5073 214.203 35.8717 213.841L37.7359 211.985L43.7887 205.958C44.1531 205.596 44.1531 205.007 43.7889 204.645C43.4246 204.282 42.8335 204.282 42.4692 204.645L34.5523 212.527C33.4593 213.615 33.4591 215.38 34.5523 216.468C35.6454 217.556 37.4179 217.556 38.511 216.468L47.0879 207.929H47.0877C48.9097 206.115 48.9099 203.174 47.0879 201.361C45.2657 199.546 42.3122 199.546 40.4904 201.36C40.4895 201.361 40.4886 201.362 40.4876 201.363L31.9163 209.896C31.9151 209.897 31.9142 209.898 31.913 209.899C29.3623 212.439 29.3623 216.556 31.913 219.095C34.4637 221.635 38.5989 221.635 41.1496 219.095L49.7266 210.556C50.0911 210.194 50.0911 209.605 49.7266 209.242Z" fill="#4645D6"/>
<rect x="102" y="185" width="50" height="50" fill="white"/>
<path d="M137.884 207.25H116.116C115.011 207.25 114.956 207.81 115.016 208.495L116.007 219.755C116.067 220.44 116.222 221 117.326 221H136.675C137.8 221 137.933 220.44 137.993 219.755L138.984 208.495C139.044 207.81 138.989 207.25 137.884 207.25ZM137.085 204.5C136.952 203.95 136.299 203.5 135.634 203.5H127.457C126.792 203.5 125.862 203.103 125.391 202.618L124.676 201.882C124.205 201.397 123.275 201 122.61 201H118.703C118.038 201 117.434 201.559 117.361 202.242L117.01 205.5H137.327L137.085 204.5Z" fill="#4645D6"/>
<rect x="189" y="185" width="50" height="50" fill="white"/>
<path d="M223.056 212.2L221.932 211.558C220.714 210.825 220.714 209.083 221.932 208.35L223.056 207.708C223.993 207.158 224.274 206.058 223.712 205.233L222.775 203.675C222.213 202.758 221.088 202.483 220.245 203.033L219.121 203.675C217.903 204.408 216.311 203.492 216.311 202.117V200.833C216.311 199.825 215.467 199 214.437 199H212.563C211.533 199 210.689 199.825 210.689 200.833V202.025C210.689 203.4 209.097 204.317 207.879 203.583L206.755 203.033C205.818 202.483 204.694 202.85 204.225 203.675L203.288 205.233C202.82 206.15 203.101 207.25 203.944 207.8L205.068 208.442C206.286 209.083 206.286 210.917 205.068 211.558L203.944 212.2C203.007 212.75 202.726 213.85 203.288 214.675L204.225 216.233C204.787 217.15 205.912 217.425 206.755 216.875L207.879 216.325C209.097 215.592 210.689 216.508 210.689 217.883V219.167C210.689 220.175 211.533 221 212.563 221H214.437C215.467 221 216.311 220.175 216.311 219.167V217.975C216.311 216.6 217.903 215.683 219.121 216.417L220.245 217.058C221.182 217.608 222.306 217.242 222.775 216.417L223.712 214.858C224.18 213.85 223.899 212.75 223.056 212.2ZM213.5 213.667C211.439 213.667 209.753 212.017 209.753 210C209.753 207.983 211.439 206.333 213.5 206.333C215.561 206.333 217.247 207.983 217.247 210C217.247 212.017 215.561 213.667 213.5 213.667Z" fill="#4645D6"/>
<rect x="189" y="102" width="50" height="50" fill="white"/>
<path d="M220.925 120.076C216.821 115.975 210.18 115.974 206.076 120.076C202.776 123.374 202.153 128.278 204.104 132.183L203.022 136.938C202.881 137.556 203.436 138.111 204.054 137.97L208.811 136.889C215.728 140.341 224 135.343 224 127.497C224 124.694 222.908 122.058 220.925 120.076ZM215.691 130.11H209.12C208.643 130.11 208.257 129.724 208.257 129.248C208.257 128.772 208.643 128.386 209.12 128.386H215.691C216.167 128.386 216.553 128.772 216.553 129.248C216.553 129.724 216.167 130.11 215.691 130.11ZM217.881 126.608H209.12C208.643 126.608 208.257 126.222 208.257 125.746C208.257 125.27 208.643 124.884 209.12 124.884H217.881C218.357 124.884 218.743 125.27 218.743 125.746C218.743 126.222 218.357 126.608 217.881 126.608Z" fill="#4645D6"/>
<rect x="189" y="19" width="50" height="50" fill="white"/>
<path d="M221.9 38V50H205.1V38H221.9ZM221.9 36H205.1C203.945 36 203 36.9 203 38V50C203 51.1 203.945 52 205.1 52H221.9C223.055 52 224 51.1 224 50V38C224 36.9 223.055 36 221.9 36Z" fill="#4645D6"/>
<path d="M209.236 41.8184L213.309 45.0911L215.345 44.0002L219.418 46.6184V48.3638H207.2V44.0002L209.236 41.8184Z" fill="#4645D6"/>
<path d="M217.891 43.2733C218.734 43.2733 219.418 42.6221 219.418 41.8188C219.418 41.0155 218.734 40.3643 217.891 40.3643C217.047 40.3643 216.363 41.0155 216.363 41.8188C216.363 42.6221 217.047 43.2733 217.891 43.2733Z" fill="#4645D6"/>
<rect x="102" y="19" width="50" height="50" fill="white"/>
<path d="M136 36.4317C136 35.0885 134.923 34 133.595 34H123.536C122.207 34 121.131 35.0885 121.131 36.4317V48.3687C121.131 49.7117 122.207 50.8002 123.536 50.8002H133.595C134.923 50.8002 136 49.7117 136 48.3687V36.4317ZM131.845 46.8212H125.285C124.923 46.8212 124.629 46.5241 124.629 46.158C124.629 45.7919 124.923 45.4948 125.285 45.4948H131.845C132.208 45.4948 132.501 45.7919 132.501 46.158C132.501 46.5241 132.208 46.8212 131.845 46.8212ZM131.845 44.1685H125.285C124.923 44.1685 124.629 43.8714 124.629 43.5053C124.629 43.1393 124.923 42.8422 125.285 42.8422H131.845C132.208 42.8422 132.501 43.1393 132.501 43.5053C132.501 43.8714 132.208 44.1685 131.845 44.1685ZM131.845 41.5158H125.285C124.923 41.5158 124.629 41.2187 124.629 40.8527C124.629 40.4866 124.923 40.1895 125.285 40.1895H131.845C132.208 40.1895 132.501 40.4866 132.501 40.8527C132.501 41.2187 132.208 41.5158 131.845 41.5158Z" fill="#4645D6"/>
<path d="M123.585 51.9915C121.593 51.9915 119.974 50.3525 119.974 48.3386V36.7348C119.974 36.6608 119.991 36.592 119.995 36.5198H119.337C118.048 36.5198 117 37.5796 117 38.8836V52.6362C117 53.9401 118.048 55 119.337 55H129.533C130.822 55 131.87 53.9401 131.87 52.6362V51.9915H123.585Z" fill="#4645D6"/>
</svg>
