<svg width="25" height="25" viewBox="0 0 25 25" fill="none" xmlns="http://www.w3.org/2000/svg">
<path d="M12.5 25C19.4036 25 25 19.4036 25 12.5C25 5.59644 19.4036 0 12.5 0C5.59644 0 0 5.59644 0 12.5C0 19.4036 5.59644 25 12.5 25Z" fill="#F0F0F0"/>
<path d="M25 12.5C25 5.59648 19.4036 0 12.5 0C10.0547 0 7.77378 0.702881 5.84712 1.91655L8.58701 3.08066L4.89136 4.65088L8.58701 6.22105L4.89136 7.79116L8.58701 9.36123L4.89136 10.9311L8.58701 12.5009L4.89136 14.071L8.58701 15.641L4.89136 17.2109L8.58701 18.7809L4.89136 20.351L8.58701 21.9209L5.84834 23.0844C7.77476 24.2975 10.0552 25 12.5 25C19.4036 25 25 19.4035 25 12.5Z" fill="#751A46"/>
</svg>
