<svg width="49" height="48" viewBox="0 0 49 48" fill="none" xmlns="http://www.w3.org/2000/svg">
<path d="M24.5014 0.00292969C11.3076 0.00292969 0.611816 10.7006 0.611816 23.8926C0.611816 37.0864 11.3076 47.7803 24.5014 47.7803C37.6953 47.7803 48.3891 37.0864 48.3891 23.8926C48.3891 10.7006 37.6943 0.00292969 24.5014 0.00292969ZM36.535 19.0758C36.5476 19.3339 36.5525 19.5929 36.5525 19.8549C36.5525 27.811 30.4969 36.9836 19.4238 36.9836C16.0244 36.9836 12.8588 35.9873 10.1948 34.2798C10.6663 34.3351 11.1446 34.3633 11.6306 34.3633C14.4518 34.3633 17.0479 33.4009 19.1075 31.7866C16.4736 31.7371 14.251 29.9957 13.4846 27.6043C13.8513 27.6761 14.2287 27.712 14.6167 27.712C15.1658 27.712 15.6975 27.6402 16.2029 27.5015C13.4477 26.9485 11.3726 24.5135 11.3726 21.5992C11.3726 21.573 11.3726 21.5477 11.3736 21.5215C12.1846 21.9727 13.113 22.2433 14.1006 22.2753C12.4844 21.1936 11.4221 19.3533 11.4221 17.2636C11.4221 16.1606 11.7189 15.1254 12.237 14.2368C15.2066 17.8787 19.643 20.2759 24.647 20.5262C24.5441 20.0867 24.4908 19.6259 24.4908 19.1544C24.4908 15.8307 27.1858 13.1347 30.5115 13.1347C32.2431 13.1347 33.807 13.8662 34.9052 15.0352C36.277 14.7665 37.5653 14.264 38.7285 13.5742C38.2774 14.9809 37.3238 16.1606 36.08 16.9047C37.2995 16.7591 38.4598 16.4351 39.5386 15.9568C38.7334 17.1666 37.7118 18.227 36.535 19.0758Z" fill="white" fill-opacity="0.7"/>
</svg>
